<svg width="89" height="89" viewBox="0 0 89 89" fill="none" xmlns="http://www.w3.org/2000/svg">
<g id="Functional / Alert">
<path id="&#240;&#159;&#140;&#136; Color" fill-rule="evenodd" clip-rule="evenodd" d="M36.4449 12.3391C39.8576 6.43185 48.3894 6.43185 51.8547 12.4371L79.6391 68.0681C83.0527 73.9769 78.7868 81.3657 71.9624 81.3657H16.2882C9.46358 81.3657 5.19437 73.9767 8.5551 68.1661L36.3922 12.4371L36.4449 12.3391ZM48.6232 14.1769C46.6327 10.7313 41.666 10.7165 39.6498 14.1323L11.7866 69.9058C9.78843 73.3647 12.2891 77.6929 16.2882 77.6929H71.9624C75.9606 77.6929 78.4589 73.3655 76.4076 69.8078L48.6232 14.1769ZM44.1242 63.0014C45.1381 63.0014 45.9599 63.8236 45.9599 64.8379V68.5107C45.9599 69.525 45.1381 70.3471 44.1242 70.3471C43.1104 70.3471 42.2885 69.525 42.2885 68.5107V64.8379C42.2885 63.8236 43.1104 63.0014 44.1242 63.0014ZM44.1242 35.4551C45.1381 35.4551 45.9599 36.2772 45.9599 37.2915V55.6557C45.9599 56.67 45.1381 57.4922 44.1242 57.4922C43.1104 57.4922 42.2885 56.67 42.2885 55.6557V37.2915C42.2885 36.2772 43.1104 35.4551 44.1242 35.4551Z" fill="#595959" stroke="#595959"/>
</g>
</svg>
