<svg width="24" height="24" viewBox="0 0 24 24" fill="none" xmlns="http://www.w3.org/2000/svg">
<path fill-rule="evenodd" clip-rule="evenodd" d="M14.2527 2C15.492 2 16.5 2.99571 16.5 4.21987V5.33388H19.2962C19.3019 5.33367 19.3067 5.33062 19.3125 5.33062C19.3183 5.33062 19.3231 5.33367 19.3288 5.33388H20.4375C20.7484 5.33388 21 5.5824 21 5.88952C21 6.19665 20.7484 6.44517 20.4375 6.44517H19.875V17.5852C19.875 20.0194 17.87 22 15.4052 22H8.59479C6.13 22 4.125 20.0194 4.125 17.5852V6.44517H3.5625C3.25159 6.44517 3 6.19665 3 5.88952C3 5.5824 3.25159 5.33388 3.5625 5.33388H4.67116C4.67693 5.33367 4.68166 5.33062 4.6875 5.33062C4.69334 5.33062 4.69807 5.33367 4.70384 5.33388H7.5V4.21987C7.5 2.99571 8.508 2 9.74725 2H14.2527ZM18.75 6.44517H5.25V17.5852C5.25 19.4068 6.75073 20.8887 8.59479 20.8887H15.4052C17.2493 20.8887 18.75 19.4068 18.75 17.5852V6.44517ZM8.0625 8.66775C8.37341 8.66775 8.625 8.91627 8.625 9.2234V18.1137C8.625 18.4209 8.37341 18.6694 8.0625 18.6694C7.75159 18.6694 7.5 18.4209 7.5 18.1137V9.2234C7.5 8.91627 7.75159 8.66775 8.0625 8.66775ZM12 8.66775C12.3109 8.66775 12.5625 8.91627 12.5625 9.2234V18.1137C12.5625 18.4209 12.3109 18.6694 12 18.6694C11.6891 18.6694 11.4375 18.4209 11.4375 18.1137V9.2234C11.4375 8.91627 11.6891 8.66775 12 8.66775ZM15.9375 8.66775C16.2484 8.66775 16.5 8.91627 16.5 9.2234V18.1137C16.5 18.4209 16.2484 18.6694 15.9375 18.6694C15.6266 18.6694 15.375 18.4209 15.375 18.1137V9.2234C15.375 8.91627 15.6266 8.66775 15.9375 8.66775ZM14.2527 3.11129H9.74725C9.12817 3.11129 8.625 3.60833 8.625 4.21987V5.33388H15.375V4.21987C15.375 3.60833 14.8718 3.11129 14.2527 3.11129Z" fill="#EC0000"/>
</svg>
