<svg width="28" height="28" viewBox="0 0 28 28" fill="none" xmlns="http://www.w3.org/2000/svg">
<g id="System / informationInACircle">
<path id="&#240;&#159;&#140;&#136; Color" fill-rule="evenodd" clip-rule="evenodd" d="M14 2.33337C20.4332 2.33337 25.6667 7.56685 25.6667 14C25.6667 20.4332 20.4332 25.6667 14 25.6667C7.56681 25.6667 2.33333 20.4332 2.33333 14C2.33333 7.56685 7.56681 2.33337 14 2.33337ZM14 3.50004C8.21053 3.50004 3.49999 8.21057 3.49999 14C3.49999 19.7895 8.21053 24.5 14 24.5C19.7895 24.5 24.5 19.7895 24.5 14C24.5 8.21057 19.7895 3.50004 14 3.50004ZM14 11.6667C14.3224 11.6667 14.5833 11.9276 14.5833 12.25V20.4167C14.5833 20.7391 14.3224 21 14 21C13.6776 21 13.4167 20.7391 13.4167 20.4167V12.25C13.4167 11.9276 13.6776 11.6667 14 11.6667ZM14 7.00004C14.3224 7.00004 14.5833 7.26095 14.5833 7.58337V8.75004C14.5833 9.07247 14.3224 9.33337 14 9.33337C13.6776 9.33337 13.4167 9.07247 13.4167 8.75004V7.58337C13.4167 7.26095 13.6776 7.00004 14 7.00004Z" fill="#191919"/>
</g>
</svg>
