<svg width="18" height="18" viewBox="0 0 18 18" fill="none" xmlns="http://www.w3.org/2000/svg">
<g id="Icon">
<path id="&#240;&#159;&#140;&#136; Color" fill-rule="evenodd" clip-rule="evenodd" d="M14.1386 3C14.3669 3 14.5858 3.09124 14.7467 3.25344C15.0787 3.58761 15.0787 4.12733 14.7467 4.4615L10.212 8.99828L14.7467 13.5349C14.9088 13.6957 15 13.9147 15 14.1432C15 14.3716 14.9088 14.5906 14.7467 14.7515C14.585 14.9119 14.3662 15.0013 14.1386 15C13.9109 15.0013 13.6921 14.9119 13.5305 14.7515L8.99571 10.2146L4.46947 14.7429C4.30925 14.9065 4.09028 14.999 3.8614 15C3.63376 15.0013 3.41496 14.9119 3.25333 14.7515C3.0912 14.5906 3 14.3716 3 14.1432C3 13.9147 3.0912 13.6957 3.25333 13.5349L7.78285 9.00256L3.25333 4.47007C2.91751 4.13411 2.91751 3.5894 3.25333 3.25344C3.58916 2.91747 4.13364 2.91747 4.46947 3.25344L8.99999 7.78542L13.5305 3.25344C13.6913 3.09124 13.9102 3 14.1386 3Z" fill="#191919"/>
</g>
</svg>
