<svg width="18" height="19" viewBox="0 0 18 19" fill="none" xmlns="http://www.w3.org/2000/svg">
<path fill-rule="evenodd" clip-rule="evenodd" d="M16.4886 6.8187V4.82971C16.4886 4.08264 15.8807 3.47473 15.1337 3.47473H13.4923V2.3761C13.4923 2.16882 13.3246 2.0011 13.1173 2.0011C12.91 2.0011 12.7423 2.16882 12.7423 2.3761V3.47473H5.25769V2.3761C5.25769 2.16882 5.08997 2.0011 4.88269 2.0011C4.67542 2.0011 4.50769 2.16882 4.50769 2.3761V3.47473H2.86011C2.11304 3.47473 1.50513 4.08264 1.50513 4.82971V6.84955C1.50449 6.85843 1.5 6.86598 1.5 6.875C1.5 6.88402 1.50449 6.89157 1.50513 6.90045V15.6377C1.50513 16.3848 2.11304 16.9927 2.86011 16.9927H15.1337C15.8807 16.9927 16.4886 16.3848 16.4886 15.6377V6.9313C16.4917 6.91217 16.5 6.895 16.5 6.875C16.5 6.855 16.4917 6.83783 16.4886 6.8187ZM2.86011 4.22473H4.50769V5.375C4.50769 5.58228 4.67542 5.75 4.88269 5.75C5.08997 5.75 5.25769 5.58228 5.25769 5.375V4.22473H12.7423V5.375C12.7423 5.58228 12.91 5.75 13.1173 5.75C13.3246 5.75 13.4923 5.58228 13.4923 5.375V4.22473H15.1337C15.4673 4.22473 15.7386 4.49609 15.7386 4.82971V6.5H2.25513V4.82971C2.25513 4.49609 2.52649 4.22473 2.86011 4.22473ZM15.1337 16.2427H2.86011C2.52649 16.2427 2.25513 15.9713 2.25513 15.6377V7.25H15.7386V15.6377C15.7386 15.9713 15.4673 16.2427 15.1337 16.2427Z" fill="white"/>
</svg>
