<svg width="154" height="244" viewBox="0 0 154 244" fill="none" xmlns="http://www.w3.org/2000/svg">
<g clip-path="url(#clip0_18859_94556)">
<path d="M8.8 0H144.6C149.5 0 153.4 3.9 153.4 8.8V235C153.4 239.9 149.5 243.8 144.6 243.8H8.8C3.9 243.8 0 239.9 0 235V8.8C0.1 3.9 4 0 8.8 0Z" fill="url(#paint0_linear_18859_94556)"/>
<path opacity="0.31" d="M153.2 234.7C153.2 239.7 149.1 243.8 144.1 243.8H9.1C4.1 243.8 0 239.7 0 234.7V121.7H38.4V85.2H153.2V234.7Z" fill="url(#paint1_linear_18859_94556)"/>
<path d="M129.8 207.8H116V232.6H129.8V207.8Z" fill="#F26522"/>
<path d="M116.9 220.1C116.9 215.3 119.1 210.7 122.9 207.7C116.1 202.3 106.1 203.5 100.8 210.4C95.3999 217.2 96.5999 227.2 103.5 232.5C109.2 237 117.3 237 123 232.5C119.1 229.5 116.9 225 116.9 220.1Z" fill="#E51B24"/>
<path d="M146.9 229.9V229.4H147.1V229.3H146.6V229.4H146.8V229.9H146.9ZM147.9 229.9V229.3H147.7L147.5 229.7L147.3 229.3H147.1V229.9H147.2V229.4L147.4 229.8H147.5L147.7 229.4V229.9H147.9Z" fill="white"/>
<path d="M148.4 220.1C148.4 228.8 141.3 235.9 132.6 235.9C129.1 235.9 125.6 234.7 122.8 232.5C129.6 227.1 130.8 217.2 125.5 210.4C124.7 209.4 123.8 208.5 122.8 207.7C129.6 202.3 139.6 203.5 144.9 210.3C147.2 213.2 148.4 216.6 148.4 220.1Z" fill="#F99F1C"/>
<path d="M86.2002 119.4C86.1002 117.9 85.7002 116.4 85.0002 115.1L78.1002 103.2C77.6002 102.3 77.2002 101.3 77.0002 100.3L76.7002 100.8C75.0002 103.7 75.0002 107.4 76.7002 110.3L82.2002 119.8C83.9002 122.7 83.9002 126.4 82.2002 129.3L81.9002 129.8C81.7002 128.8 81.3002 127.8 80.8002 126.9L75.8002 118.2L72.6002 112.6C72.1002 111.7 71.7002 110.7 71.5002 109.7L71.2002 110.2C69.5002 113.1 69.5002 116.8 71.2002 119.7L76.7002 129.3C78.4002 132.2 78.4002 135.9 76.7002 138.8L76.4002 139.3C76.2002 138.3 75.8002 137.3 75.3002 136.4L68.4002 124.5C67.5002 122.9 67.1002 121.1 67.1002 119.3C59.7002 121.2 54.7002 125.3 54.7002 130C54.7002 136.6 64.5002 141.9 76.6002 141.9C88.7002 141.9 98.6002 136.6 98.6002 130C98.7002 125.4 93.6002 121.4 86.2002 119.4Z" fill="#F6E8AC"/>
<path d="M69.9002 24.4V30.2C69.9002 31.1 69.7002 31.7 69.2002 32.1C68.7002 32.5 68.1002 32.7 67.3002 32.7C66.8002 32.7 66.2002 32.6 65.7002 32.4C65.7002 32.2 65.7002 32 65.8002 31.9C66.0002 32 66.3002 32.1 66.5002 32.2C66.8002 32.3 67.0002 32.3 67.3002 32.3C67.9002 32.3 68.4002 32.1 68.8002 31.8C69.2002 31.5 69.4002 31 69.4002 30.2V29.2C69.2002 29.5 68.9002 29.8 68.6002 29.9C68.3002 30.1 68.0002 30.1 67.6002 30.1C67.1002 30.1 66.7002 30 66.3002 29.7C65.9002 29.5 65.7002 29.1 65.5002 28.7C65.3002 28.2 65.2002 27.7 65.2002 27.1C65.2002 26.1 65.4002 25.3 65.9002 24.7C66.4002 24.2 67.0002 23.9 68.0002 23.9C68.4002 23.9 68.7002 23.9 69.0002 24C69.3002 24.1 69.7002 24.3 69.9002 24.4ZM68.7002 29.6C69.0002 29.5 69.2002 29.3 69.4002 29V24.8C69.0002 24.6 68.5002 24.5 68.0002 24.5C67.3002 24.5 66.7002 24.7 66.3002 25.2C65.9002 25.7 65.7002 26.3 65.7002 27.2C65.7002 28 65.9002 28.7 66.2002 29.1C66.5002 29.5 67.0002 29.8 67.7002 29.8C68.1002 29.8 68.4002 29.7 68.7002 29.6Z" fill="#FFF6D3"/>
<path d="M72.8002 29.9C72.4002 29.6 72.1002 29.3 71.9002 28.8C71.7002 28.3 71.6002 27.8 71.6002 27.2C71.6002 26.6 71.7002 26 71.9002 25.6C72.1002 25.1 72.4002 24.8 72.8002 24.5C73.2002 24.2 73.6002 24.1 74.2002 24.1C74.7002 24.1 75.2002 24.2 75.6002 24.5C76.0002 24.8 76.3002 25.1 76.5002 25.6C76.7002 26.1 76.8002 26.6 76.8002 27.2C76.8002 27.8 76.7002 28.4 76.5002 28.9C76.3002 29.4 76.0002 29.7 75.6002 30C75.2002 30.2 74.8002 30.4 74.2002 30.4C73.7002 30.2 73.2002 30.1 72.8002 29.9ZM75.7002 29.1C76.0002 28.6 76.2002 28 76.2002 27.2C76.2002 26.7 76.1002 26.2 76.0002 25.8C75.8002 25.4 75.6002 25.1 75.3002 24.9C75.0002 24.7 74.6002 24.6 74.2002 24.6C73.8002 24.6 73.4002 24.7 73.1002 24.9C72.8002 25.1 72.6002 25.4 72.4002 25.8C72.2002 26.2 72.2002 26.7 72.2002 27.2C72.2002 27.7 72.3002 28.2 72.4002 28.6C72.6002 29 72.8002 29.3 73.1002 29.5C73.4002 29.7 73.8002 29.8 74.2002 29.8C74.9002 29.8 75.4002 29.6 75.7002 29.1Z" fill="#FFF6D3"/>
<path d="M78.8002 29.9C78.6002 29.7 78.5002 29.3 78.5002 28.8V21.7C78.7002 21.6 78.8002 21.6 79.0002 21.6V28.7C79.0002 29 79.1002 29.3 79.2002 29.5C79.4002 29.7 79.6002 29.8 79.9002 29.8C80.1002 29.8 80.4002 29.8 80.6002 29.7C80.6002 29.8 80.6002 30 80.5002 30.2C80.2002 30.3 80.0002 30.3 79.7002 30.3C79.3002 30.2 79.0002 30.1 78.8002 29.9Z" fill="#FFF6D3"/>
<path d="M86.0002 21.6V30.1H85.5002V29.3C85.3002 29.6 85.0002 29.9 84.8002 30C84.5002 30.2 84.2002 30.2 83.8002 30.2C83.3002 30.2 82.9002 30.1 82.5002 29.8C82.1002 29.6 81.9002 29.2 81.7002 28.8C81.5002 28.3 81.4002 27.8 81.4002 27.2C81.4002 26.2 81.6002 25.4 82.1002 24.8C82.6002 24.3 83.2002 24 84.2002 24C84.7002 24 85.2002 24.1 85.6002 24.2V21.7C85.7002 21.7 85.8002 21.6 86.0002 21.6ZM84.7002 29.6C85.0002 29.5 85.2002 29.2 85.4002 29V24.8C85.0002 24.6 84.5002 24.5 84.0002 24.5C83.3002 24.5 82.7002 24.7 82.3002 25.2C81.9002 25.7 81.7002 26.3 81.7002 27.2C81.7002 28 81.9002 28.7 82.2002 29.1C82.5002 29.5 83.0002 29.8 83.7002 29.8C84.2002 29.8 84.5002 29.7 84.7002 29.6Z" fill="#FFF6D3"/>
<path d="M13.0999 235.9C12.8999 235.8 12.6999 235.6 12.6999 235.4C12.6999 235.3 12.6999 235.2 12.8999 234.8C13.6999 233.4 14.0999 231.8 13.9999 230.2C13.9999 228.7 13.6999 227.2 12.9999 225.8C12.8999 225.6 12.7999 225.4 12.6999 225.1C12.6999 224.9 12.7999 224.7 12.9999 224.6C13.1999 224.5 13.4999 224.5 13.6999 224.7C13.7999 224.9 13.9999 225.1 14.0999 225.3C14.5999 226.4 14.9999 227.5 15.1999 228.7C15.2999 229.6 15.2999 230.6 15.1999 231.5C15.0999 232.7 14.6999 233.9 14.1999 235C13.8999 235.7 13.6999 235.9 13.4999 235.9H13.3999C13.2999 235.9 13.1999 235.9 13.0999 235.9ZM10.9999 234.8C10.6999 234.7 10.4999 234.4 10.5999 234.1C10.6999 233.9 10.7999 233.7 10.8999 233.5C11.4999 232.3 11.6999 231 11.5999 229.7C11.4999 228.8 11.2999 227.8 10.7999 227C10.4999 226.3 10.4999 226.2 10.5999 226C10.7999 225.7 11.1999 225.7 11.3999 225.9C11.7999 226.5 11.9999 227.1 12.1999 227.7C12.7999 229.7 12.6999 231.8 11.8999 233.7C11.6999 234.7 11.3999 235 10.9999 234.8ZM8.7999 233.7C8.5999 233.6 8.4999 233.4 8.3999 233.3C8.3999 233.2 8.3999 233.1 8.5999 232.7C9.2999 231.3 9.2999 229.6 8.5999 228.2C8.2999 227.5 8.2999 227.4 8.5999 227.2C8.6999 227.1 8.7999 227 8.9999 227.1C9.2999 227.1 9.4999 227.3 9.7999 227.8C10.1999 228.6 10.3999 229.5 10.3999 230.5C10.3999 231.4 10.1999 232.3 9.7999 233.2C9.4999 233.7 9.3999 233.9 9.0999 233.9C8.8999 233.8 8.7999 233.8 8.7999 233.7ZM6.5999 232.7C6.3999 232.6 6.2999 232.5 6.2999 232.3C6.2999 232.1 6.2999 232 6.4999 231.6C6.6999 231.2 6.8999 230.8 6.7999 230.4C6.7999 230 6.6999 229.5 6.4999 229.2C6.3999 229.1 6.3999 228.9 6.2999 228.8C6.1999 228.5 6.3999 228.2 6.7999 228.1C7.0999 228 7.2999 228.2 7.4999 228.6C8.1999 229.7 8.1999 231.2 7.4999 232.4C7.1999 232.7 6.8999 232.8 6.5999 232.7Z" fill="#EFE19E"/>
<path d="M72.9002 173.3C74.4002 173.3 75.6002 174.5 75.6002 175.9V201.1C75.6002 202.6 74.4002 203.7 72.9002 203.7H55.9002C54.4002 203.7 53.2002 202.5 53.2002 201.1V175.9C53.2002 174.4 54.4002 173.3 55.9002 173.3H72.9002Z" fill="url(#paint2_linear_18859_94556)"/>
<mask id="mask0_18859_94556" style="mask-type:luminance" maskUnits="userSpaceOnUse" x="53" y="173" width="23" height="31">
<path d="M72.9002 173.3C74.4002 173.3 75.6002 174.5 75.6002 175.9V201.1C75.6002 202.6 74.4002 203.7 72.9002 203.7H55.9002C54.4002 203.7 53.2002 202.5 53.2002 201.1V175.9C53.2002 174.4 54.4002 173.3 55.9002 173.3H72.9002Z" fill="white"/>
</mask>
<g mask="url(#mask0_18859_94556)">
<path d="M61.0002 173.3V182.1C57.9002 182.6 55.1002 184.3 53.2002 186.9V189.6C55.0002 192.2 57.8002 193.9 61.0002 194.4V203.9" stroke="#231F20" stroke-width="0.5"/>
<path d="M68.1001 173.3V182.3C72.0001 182.3 75.6001 186.8 75.6001 186.8V189.7C75.6001 189.7 72.0001 194.2 68.1001 194.2V203.8" stroke="#231F20" stroke-width="0.5"/>
<path d="M54.8001 187.5C55.2001 187.5 55.5001 187.8 55.5001 188.2C55.5001 188.6 55.2001 188.9 54.8001 188.9C54.4001 188.9 54.1001 188.6 54.1001 188.2C54.1001 187.8 54.4001 187.5 54.8001 187.5Z" fill="#231F20"/>
<path d="M61 194.3C62.1 193.9 63.3 193.7 64.5 193.7C65.7 193.7 66.9 193.9 68.1 194.2" stroke="#231F20" stroke-width="0.5"/>
<path d="M61 182.1C62.1 182.5 63.3 182.7 64.5 182.7C65.7 182.7 66.9 182.5 68.1 182.2" stroke="#231F20" stroke-width="0.5"/>
<path d="M53.4004 194.4V202.4" stroke="#231F20" stroke-width="0.5"/>
<path d="M75.4004 194.4V202.4" stroke="#231F20" stroke-width="0.5"/>
<path d="M53.4004 174.3V182.2" stroke="#231F20" stroke-width="0.5"/>
<path d="M75.4004 174.3V182.2" stroke="#231F20" stroke-width="0.5"/>
</g>
<path d="M72.9002 173.3C74.4002 173.3 75.6002 174.5 75.6002 175.9V201.1C75.6002 202.6 74.4002 203.7 72.9002 203.7H55.9002C54.4002 203.7 53.2002 202.5 53.2002 201.1V175.9C53.2002 174.4 54.4002 173.3 55.9002 173.3H72.9002Z" stroke="#A89A33" stroke-width="0.3"/>
</g>
<defs>
<linearGradient id="paint0_linear_18859_94556" x1="76.725" y1="0" x2="76.725" y2="243.74" gradientUnits="userSpaceOnUse">
<stop stop-color="#D2B15B"/>
<stop offset="1" stop-color="#D0B05B"/>
</linearGradient>
<linearGradient id="paint1_linear_18859_94556" x1="1.4793" y1="119.207" x2="166.349" y2="214.406" gradientUnits="userSpaceOnUse">
<stop stop-color="white"/>
<stop offset="0.03" stop-color="white" stop-opacity="0.91"/>
<stop offset="0.1" stop-color="white" stop-opacity="0.72"/>
<stop offset="0.17" stop-color="white" stop-opacity="0.55"/>
<stop offset="0.25" stop-color="white" stop-opacity="0.4"/>
<stop offset="0.33" stop-color="white" stop-opacity="0.28"/>
<stop offset="0.42" stop-color="white" stop-opacity="0.18"/>
<stop offset="0.52" stop-color="white" stop-opacity="0.1"/>
<stop offset="0.63" stop-color="white" stop-opacity="0.04"/>
<stop offset="0.76" stop-color="white" stop-opacity="0.01"/>
<stop offset="1" stop-color="white" stop-opacity="0"/>
</linearGradient>
<linearGradient id="paint2_linear_18859_94556" x1="74.0736" y1="175.705" x2="54.5836" y2="201.605" gradientUnits="userSpaceOnUse">
<stop stop-color="#FBF171"/>
<stop offset="0.3" stop-color="#E6B722"/>
<stop offset="1" stop-color="#E8C31F"/>
</linearGradient>
<clipPath id="clip0_18859_94556">
<rect width="154" height="244" fill="white"/>
</clipPath>
</defs>
</svg>
