<svg width="151" height="241" viewBox="0 0 151 241" fill="none" xmlns="http://www.w3.org/2000/svg">
<g clip-path="url(#clip0_3_6596)">
<rect width="151" height="241" rx="10" fill="white"/>
<path d="M153 243.395L153 0L-0.723068 -6.71945e-06L-0.723079 243.395L153 243.395Z" fill="url(#paint0_linear_3_6596)"/>
<path opacity="0.719" fill-rule="evenodd" clip-rule="evenodd" d="M-0.723071 243.395L-0.723071 239.735C-0.707278 237.158 -0.723071 234.24 -0.723071 230.585C-0.72307 223.728 -0.72307 219.433 -0.72307 214.572C-0.723069 195.356 -1.34598 187.579 -0.723069 187.579C68.137 234.73 119.378 231.527 153 177.971C132.093 221.587 80.8521 243.395 -0.723071 243.395Z" fill="url(#paint1_linear_3_6596)"/>
<path fill-rule="evenodd" clip-rule="evenodd" d="M-0.723068 -6.71945e-06L16.1625 -5.98136e-06C31.9446 149.07 77.5571 206.411 153 172.023C102.051 215.621 50.8099 196.629 -0.723073 115.049L-0.723068 -6.71945e-06Z" fill="url(#paint2_linear_3_6596)" fill-opacity="0.85"/>
<g style="mix-blend-mode:soft-light" opacity="0.563" filter="url(#filter0_f_3_6596)">
<path fill-rule="evenodd" clip-rule="evenodd" d="M73.6216 50.5658C74.9546 49.8228 76.4244 49.411 77.9685 49.411C84.0327 49.411 88.9487 55.7609 88.9487 63.5938C88.9487 71.4268 84.0327 77.7766 77.9685 77.7766C76.4244 77.7766 74.9546 77.3649 73.6216 76.6218C71.1678 79.6082 67.8698 81.4367 64.2432 81.4367C56.663 81.4367 50.518 73.4482 50.518 63.5938C50.518 53.7395 56.663 45.751 64.2432 45.751C67.8698 45.751 71.1678 47.5794 73.6216 50.5658Z" fill="#B7842C"/>
</g>
<g style="mix-blend-mode:soft-light" opacity="0.145" filter="url(#filter1_f_3_6596)">
<path fill-rule="evenodd" clip-rule="evenodd" d="M87.8303 109.812C89.5829 108.947 91.4893 108.473 93.4831 108.473C102.097 108.473 109.079 117.325 109.079 128.244C109.079 139.163 102.097 148.015 93.4831 148.015C91.2298 148.015 89.0882 147.409 87.1539 146.319C83.7498 150.352 79.2377 152.808 74.2881 152.808C63.6869 152.808 55.093 141.542 55.093 127.645C55.093 113.748 63.6869 102.482 74.2881 102.482C79.573 102.482 84.3591 105.282 87.8303 109.812Z" fill="#B7842C"/>
</g>
<g opacity="0.4">
<path opacity="0.4" fill-rule="evenodd" clip-rule="evenodd" d="M92.4694 90.7553L92.2736 90.3426C91.9671 90.5027 91.6532 90.6509 91.3659 90.8404C91.3385 90.8587 91.4739 91.1268 91.5343 91.2787C91.8454 91.1048 92.1574 90.9291 92.4694 90.7553ZM80.9576 106.604C81.1607 106.339 81.3959 106.103 81.3648 106.061C81.2083 105.845 80.9832 105.68 80.7819 105.497C80.6703 105.647 80.4461 105.827 80.4763 105.944C80.5257 106.147 80.7316 106.312 80.9576 106.604ZM90.4344 127.827C90.4482 127.782 90.4555 127.756 90.4628 127.731C89.6411 127.578 88.8203 127.425 87.9547 127.264C88.6465 128.2 89.5258 128.083 90.4344 127.827ZM53.8035 93.7245C53.8474 94.5105 54.4486 94.5626 54.9473 94.7969C55.1586 93.784 55.0443 93.676 53.8035 93.7245ZM81.6933 102.67C82.2752 101.288 81.3794 100.695 80.878 99.9732C80.7892 99.846 80.3811 99.7874 80.2347 99.8789C79.3344 100.439 78.4669 101.051 77.7193 101.558C77.0861 101.537 76.3825 101.306 75.9332 101.549C75.2735 101.905 75.2104 103.063 75.6175 103.906C77.2097 103.21 78.9455 102.801 80.2173 101.404C80.7124 101.829 81.1635 102.215 81.6933 102.67ZM79.9675 93.3576C80.253 93.1233 80.4882 92.9541 80.695 92.7573C80.9018 92.5578 81.1744 92.3529 81.2376 92.1058C81.2742 91.9585 80.9969 91.6566 80.7938 91.5422C80.35 91.2915 79.8321 91.1634 79.4021 90.8943C78.9564 90.618 78.4376 90.4936 78.2263 90.9419C78.024 91.3711 77.9966 92.0436 78.1961 92.4645C78.5712 93.2523 78.574 93.9542 78.2995 94.7438C78.1137 95.2782 77.9829 95.851 77.9572 96.4128C77.9435 96.6846 78.2272 96.9719 78.3763 97.2519C78.6481 97.0826 78.9921 96.971 79.1751 96.734C79.6528 96.1127 80.059 95.4374 80.4552 94.8436C80.9054 95.0046 81.3026 95.1464 81.9046 95.3615C81.5734 94.7008 81.3456 94.2451 81.1168 93.7895C81.0527 93.8078 80.9896 93.8242 80.9265 93.8416C80.8414 94.1115 80.7563 94.3815 80.6227 94.8088C80.3628 94.2332 80.1734 93.8151 79.9675 93.3576ZM95.6455 87.5939C95.8632 86.8555 96.0618 86.1655 95.3179 86.1207C94.3955 86.063 93.8969 85.5708 93.3433 84.9797C92.7686 84.3648 91.9497 84.4288 91.2708 85.0108C90.8316 85.3878 90.4445 85.3887 89.9568 84.9422C89.6448 84.6576 89.0216 84.4453 88.6465 84.5578C88.06 84.7354 87.9474 84.4773 87.8001 84.0811C87.6299 83.6163 87.5896 82.9236 87.2612 82.736C86.6883 82.4094 86.6938 82.0681 86.9006 81.541C86.8137 81.5474 86.7286 81.5538 86.6417 81.5612C86.5731 82.2273 86.5026 82.8934 86.434 83.5605C86.4944 84.2907 87.4789 84.8589 86.5978 85.9752C87.0818 86.1555 87.4936 86.4263 87.9117 86.4373C88.9796 86.4675 89.2486 86.8033 88.7929 87.7412C89.7344 87.9864 89.5368 87.3468 89.4334 86.8152C90.353 87.1373 90.7419 87.8025 90.7089 88.744C90.6961 89.0963 90.848 89.4532 90.9624 89.9784C91.4346 89.2125 91.4281 88.7889 91.0585 87.84C90.7465 87.0394 91.2424 86.2497 92.0815 86.1875C92.3697 86.1655 92.6588 86.0264 92.9379 86.0521C93.2307 86.0804 93.5382 86.1976 93.7916 86.3522C94.391 86.7191 94.961 87.1309 95.6455 87.5939ZM74.8023 94.8243C74.8718 93.9798 74.9313 93.2725 74.9825 92.5643C74.9871 92.4929 74.9441 92.4105 74.9029 92.3456C74.428 91.6017 74.9468 91.0545 75.3165 90.521C75.5004 90.2566 75.8417 90.0379 76.1565 89.9409C76.5591 89.8174 77.1264 89.9866 77.4101 89.7615C78.0295 89.2684 77.2069 88.9527 77.0999 88.5309C77.0825 88.4613 77.0642 88.3909 77.0322 88.2673C76.6158 88.583 76.2315 88.8731 75.9241 89.1064C75.6093 88.8648 75.3641 88.7212 75.1857 88.5199C75.0759 88.3954 74.9725 88.099 75.0365 88.0184C75.2936 87.7037 75.5736 87.3486 75.9268 87.183C76.6332 86.8509 77.4 86.6487 78.1293 86.3604C78.3141 86.2872 78.4925 86.1216 78.6069 85.9523C79.2346 85.0245 79.8413 84.083 80.4543 83.1469C80.1524 83.0545 79.8705 83.0966 79.6628 83.2439C78.7725 83.8743 78.1586 84.7436 77.6352 85.6879C77.5391 85.8599 77.3122 85.9606 77.1447 86.0932C77.109 86.0521 77.0733 86.01 77.0386 85.9697C77.0935 85.7876 77.1493 85.6065 77.2774 85.1855C76.022 85.9798 75.774 84.5871 74.8773 84.4572C75.1298 83.9823 75.3531 83.5586 75.6706 82.9584C75.7731 83.2832 75.806 83.3985 75.8463 83.5111C76.0037 83.9558 76.1629 84.4005 76.3212 84.8442C76.7531 84.4965 77.1932 84.1561 77.6141 83.7947C77.7038 83.7169 77.702 83.5385 77.7834 83.4424C78.1869 82.9593 78.5401 82.4066 79.0296 82.0342C79.8202 81.4349 79.9126 81.3544 79.3151 80.5784C79.0296 80.2088 78.8778 79.9068 79.0845 79.452C79.3188 78.9415 79.1294 78.709 78.5602 78.591C78.2391 78.5242 77.9865 78.1527 77.6919 77.9322C77.3277 77.6604 76.9727 77.224 76.5783 77.1791C75.7621 77.0867 75.1051 76.5917 75.0081 75.7764C74.9578 75.3573 74.8297 74.9483 74.7364 74.5347L74.471 74.5494C74.0876 75.0682 73.9815 75.888 74.2249 76.2733C75.1655 77.7684 75.1472 79.3926 75.1948 81.0304C75.2094 81.5035 75.1976 81.9766 75.1976 82.467C74.5168 82.4341 73.9586 82.4076 73.212 82.371C73.1122 82.7434 72.9677 83.2887 72.8194 83.8341C72.7508 84.0875 72.7499 84.4901 72.5916 84.5688C71.8111 84.954 71.9218 85.8407 71.4743 86.4071C71.2136 86.7356 71.3664 86.9927 71.8257 87.0174C72.7371 87.0659 73.093 87.7247 72.7371 88.5876C72.4964 89.1677 72.2192 89.7652 72.1542 90.3764C72.0298 91.5349 72.0325 92.707 72.0188 93.8736C72.0169 94.0347 72.1945 94.2927 72.3436 94.344C73.1781 94.6267 73.9833 95.1565 74.8023 94.8243ZM61.5382 99.5175C60.6762 99.7197 60.5344 99.9732 60.7229 100.829C60.926 101.753 61.0935 102.684 61.3213 103.84C60.657 103.667 60.0695 103.585 59.5388 103.364C57.8095 102.647 56.4735 101.464 55.3343 99.9631C54.6966 99.124 53.7468 98.5164 52.9205 97.8238C51.957 97.014 50.9578 97.6435 49.9778 97.7963C49.5587 97.8622 49.1598 98.0672 48.7416 98.1184C47.3737 98.2849 46.2409 97.994 45.7385 96.4979C45.6425 96.2143 45.3387 96.0056 45.1666 95.7384C44.7485 95.0906 44.2672 94.8545 43.4547 95.1208C42.493 95.4347 42.1013 95.1309 41.6576 94.225C41.5441 93.9935 41.1854 93.8645 40.92 93.7272C40.4406 93.4784 39.9053 93.3146 39.467 93.0099C38.8402 92.5716 38.2519 92.0674 37.6955 91.5394C36.8867 90.7736 36.5042 89.8283 36.5554 88.6855C36.5765 88.1959 36.4218 87.6936 36.3139 87.205C36.14 86.4162 36.5902 85.9084 37.3753 85.8233C38.11 85.7437 38.9573 85.6723 39.5201 85.2706C40.4205 84.6283 41.4197 84.5203 42.4079 84.2513C43.268 84.0171 44.1995 83.8249 44.9205 83.3454C46.0734 82.5805 47.1175 82.9877 48.0499 83.5056C48.7252 83.8798 49.2321 84.244 49.9806 83.8121C50.1233 83.7307 50.3676 83.8405 50.5268 83.7737C51.365 83.4205 52.3834 83.2283 52.9754 82.6235C53.8822 81.6966 54.7515 81.5731 55.8696 81.9546C56.9905 82.3371 57.4572 81.9391 57.2229 80.8108C57.115 80.292 57.2394 79.9965 57.7225 79.711C58.0208 79.5344 58.4033 78.9552 58.3118 78.7539C57.5816 77.1316 57.7902 75.3592 57.3995 73.692C57.3693 73.5648 57.2833 73.3882 57.3355 73.315C58.019 72.3671 58.6696 71.3871 59.44 70.5132C59.9625 69.923 60.6973 69.525 61.2682 68.9705C61.6534 68.5972 62.714 68.2522 63.209 68.4663C64.1798 68.8872 65.1113 68.9586 66.1755 68.5981C66.6403 68.4398 67.4034 68.9119 67.9351 69.2496C68.9004 69.8636 69.8868 70.4629 70.4184 71.5975C70.574 71.9288 71.1541 72.1392 71.5805 72.2481C72.2118 72.4091 72.813 72.5409 73.1305 73.1897C73.2001 73.3324 73.2614 73.5172 73.3822 73.5904C73.7729 73.8274 74.181 74.1394 74.6019 74.1733C74.7739 74.1879 75.0429 73.5795 75.1838 73.2208C75.3092 72.9042 76.2251 72.4622 76.6662 72.5409C77.4549 72.68 78.2491 72.7816 79.3133 72.9399C79.3417 73.2976 79.4021 73.8668 79.4268 74.4377C79.4377 74.6711 79.3069 74.9273 79.3636 75.1414C79.4762 75.5714 78.95 76.1982 79.715 76.4288C80.4662 76.6567 81.4389 76.3007 81.8122 75.7169C81.9842 75.447 81.8946 74.8101 82.4536 75.0609C82.6431 75.145 82.6248 75.6904 82.7016 76.0253C82.7135 76.0765 82.7217 76.1278 82.7391 76.2229C82.9148 76.254 83.1051 76.2879 83.3165 76.3254C83.0356 77.0584 83.4748 77.4106 83.9058 77.8745C84.7513 78.7859 86.2876 79.1977 86.0725 80.9243C87.1532 80.8603 88.3939 79.969 88.9411 81.6893C88.3546 81.7359 87.8239 81.778 87.2456 81.8247C87.5137 82.1157 87.7342 82.3554 87.9611 82.6024C88.6401 82.3252 89.3392 82.0397 90.1114 81.724C89.976 81.5172 89.8744 81.2619 89.6905 81.1009C89.2989 80.7587 89.0683 80.4229 89.2541 79.8629C89.4792 79.1849 90.105 79.4722 90.5223 79.269C90.5689 79.2471 90.6888 79.3743 90.7336 79.3505C92.5573 78.4199 93.055 79.9928 93.9865 80.9444C94.5054 81.4733 95.0754 82.1193 96.0051 82.2163C96.5641 82.274 97.0729 82.7406 97.6237 82.9831C97.8077 83.0645 98.148 83.4534 98.2222 82.855C98.5205 82.92 98.8197 82.9849 99.1198 83.0499C99.1106 83.102 99.1015 83.1542 99.0933 83.2073C98.8846 83.2741 98.6751 83.3418 98.4674 83.4095C98.612 83.4589 98.7574 83.5101 98.9029 83.5605C99.2021 83.8368 99.5773 84.0674 99.7868 84.4023C100.197 85.0529 100.543 85.7483 100.859 86.451C100.999 86.7612 101.005 87.1318 101.039 87.5161C101.316 88.2225 100.788 88.7797 100.659 89.5493C100.39 89.2921 100.236 89.1457 100.055 88.9737C100.017 89.035 99.9552 89.089 99.9543 89.1439C99.9232 90.8385 99.2552 92.3108 98.3109 93.6614C98.1261 93.9258 97.5871 94.2012 97.3492 94.1106C97.0006 93.977 96.5678 93.5342 96.5431 93.1956C96.4919 92.5075 96.6895 91.8011 96.7664 91.2384C96.4699 91.3665 96.0728 91.576 95.6528 91.7096C95.0297 91.9082 94.7369 92.3273 94.5511 93.1233C95.0068 92.7692 95.1687 92.0326 95.7516 92.6329C95.5942 93.0529 95.4341 93.4802 95.2392 93.999C96.3702 93.5159 96.9118 94.0292 97.1681 95.3999C97.8077 95.2251 98.4436 95.0504 99.3019 94.8152C99.1244 95.345 98.9743 95.7961 98.7794 96.3835C98.4289 96.0953 98.2578 95.9553 98.073 95.8025C97.6045 96.1493 97.4965 96.3296 98.0785 96.7825C98.8224 97.3635 99.3806 98.1834 100.092 98.984C99.7356 99.092 99.5691 99.1423 99.3504 99.2082C99.5489 99.6666 99.7557 100.109 99.9305 100.561C100.002 100.747 100.018 100.958 100.039 101.16C100.056 101.322 100.042 101.488 100.041 101.65C100.223 101.585 100.455 101.566 100.576 101.443C100.774 101.239 100.875 100.941 101.067 100.729C101.218 100.566 101.446 100.473 101.816 100.234C101.241 102.037 100.752 103.566 100.211 105.262C100.817 104.487 101.35 103.661 102.339 103.6C103.253 103.545 104.173 103.588 105.039 103.588C105.43 104.915 105.191 105.095 104.119 105.433C102.927 105.809 101.847 106.527 100.685 107.016C100.232 107.206 99.6898 107.234 99.1866 107.234C98.87 107.234 98.5525 107.045 98.2377 106.941C98.3557 107.55 99.4638 108.128 100.011 107.74C100.609 107.315 100.91 107.564 101.279 108.078C101.216 107.665 101.025 107.185 101.149 107.081C101.449 106.827 101.897 106.742 102.288 106.603C102.436 106.552 102.681 106.594 102.739 106.504C103.393 105.464 104.326 105.955 105.415 106.053C104.94 106.267 104.647 106.399 104.353 106.531C104.427 106.764 104.514 107.035 104.585 107.261C104.765 107.177 104.99 107.072 105.214 106.968C105.228 107.212 105.313 107.478 105.244 107.696C105.076 108.227 104.838 108.734 104.626 109.252C104.689 109.282 104.751 109.311 104.812 109.34C104.941 109.132 105.033 108.882 105.207 108.722C105.594 108.366 106.01 108.034 106.449 107.747C106.509 107.708 106.846 107.945 106.929 108.116C107.199 108.674 107.41 109.262 107.673 109.909C107.774 109.729 107.837 109.617 107.898 109.504C108.354 108.672 108.626 108.61 109.322 109.256C109.742 109.647 110.073 110.133 110.499 110.513C110.792 110.775 111.351 110.731 111.36 111.322C111.363 111.56 111.449 111.796 111.498 112.034L111.27 112.138C111.647 112.435 112.024 112.731 112.291 112.941C112.894 112.878 113.445 112.777 113.993 112.784C114.203 112.787 114.563 113.021 114.581 113.18C114.61 113.461 114.47 113.787 114.33 114.057C114.19 114.323 113.963 114.544 113.774 114.785C113.831 114.844 113.885 114.904 113.941 114.963C113.652 115.06 113.364 115.158 113.04 115.267C113.857 115.526 114.169 116.267 113.817 116.985C113.658 117.31 113.557 117.668 113.369 117.973C113.003 118.567 112.151 118.864 111.408 118.666C110.528 118.433 109.657 118.17 108.753 117.983C108.968 118.294 108.96 118.951 109.66 118.498C109.711 118.465 110.143 118.834 110.116 118.896C109.729 119.804 110.259 120.585 110.419 121.414C110.493 121.795 110.429 122.051 110.134 122.425C109.847 122.786 110.072 123.55 110.072 124.166C111.301 123.972 111.176 123.986 111.303 125.106C111.441 126.331 110.721 127.059 109.897 127.423C109.068 127.79 108.943 128.449 108.611 129.158C109.018 129.047 109.426 128.937 109.645 128.877C109.934 129.891 110.211 130.86 110.506 131.9C110.858 131.604 111.151 131.357 111.427 131.127C111.706 131.187 111.997 131.25 112.439 131.346C112.439 132.007 112.436 132.795 112.442 133.583C112.442 133.736 112.439 133.905 112.501 134.037C112.817 134.715 113.16 135.369 112.087 135.724C111.965 135.765 111.923 136.092 111.867 136.292C111.751 136.717 111.65 137.147 111.492 137.775C111.651 138.068 111.964 138.561 112.195 139.09C112.553 139.908 112.313 140.741 111.498 141.109C110.823 141.413 110.908 141.786 111.107 142.302C111.322 142.863 111.473 143.453 111.717 144C111.818 144.228 112.087 144.384 112.288 144.565C112.411 144.675 112.548 144.772 112.679 144.875C112.539 144.992 112.396 145.214 112.258 145.212C111.494 145.204 111.742 146.056 111.291 146.296C111.346 146.382 111.42 146.548 111.453 146.539C111.616 146.501 111.795 146.448 111.92 146.344C112.276 146.048 112.609 145.723 113.027 145.34C113.489 147.087 113.953 148.596 113.226 150.186C113.02 150.634 113.148 151.23 113.09 151.754C112.948 153.047 112.939 153.046 112.142 153.962C112.872 153.704 113.388 154.181 113.186 154.926C113.103 155.231 113.024 155.537 112.919 155.937C112.422 155.971 111.91 156.008 111.398 156.045C111.388 155.987 111.377 155.928 111.367 155.87C110.964 156.139 110.576 156.442 110.144 156.654C110.034 156.707 109.63 156.478 109.621 156.362C109.586 155.831 109.644 155.295 109.668 154.761C109.739 154.743 109.812 154.724 109.884 154.706C109.689 154.541 109.494 154.376 109.233 154.155C109.349 153.927 109.475 153.681 109.601 153.436C108.762 154.178 107.906 154.747 106.953 153.742C106.384 154.4 105.838 155.133 105.184 155.753C104.683 156.228 104.432 156.056 104.276 155.386C104.039 154.37 103.069 154.296 102.309 154.025C101.775 153.835 101.172 153.838 100.6 153.756C100.827 152.26 100.827 152.26 100.264 152.063C100.027 151.558 99.86 151.205 99.7109 150.889C99.0393 150.974 98.4418 151.044 97.847 151.131C97.7244 151.149 97.513 151.236 97.5121 151.294C97.4865 152.462 96.081 151.941 95.8751 152.844C95.2785 152.257 95.2785 152.257 93.9893 152.919C93.6617 152.349 93.2124 152.343 92.5536 152.418C91.7621 152.508 90.924 152.191 90.1059 152.051C90.084 151.963 90.0602 151.874 90.0382 151.786C90.4802 151.508 90.9194 151.225 91.3668 150.954C92.2956 150.393 93.1941 149.766 94.1686 149.298C95.1733 148.819 96.1899 148.861 97.2843 149.319C98.0538 149.641 99.0923 149.332 99.85 149.668C100.956 150.157 101.797 149.61 102.742 149.391C102.724 149.311 102.706 149.231 102.687 149.152C102.336 149.238 101.986 149.324 101.601 149.417C101.218 149.278 100.759 149.112 100.101 148.874C100.47 148.544 100.766 148.28 101.112 147.97C101.075 146.914 101.031 146.87 99.8719 146.817C99.7136 146.809 99.5462 146.809 99.4007 146.756C98.8791 146.569 98.4262 146.559 98.1618 147.355C97.8388 146.809 97.588 146.429 97.3931 146.021C97.3492 145.93 97.4627 145.689 97.5716 145.612C98.0218 145.291 97.9833 144.813 97.686 144.399C97.3739 143.964 97.1571 143.397 97.0921 142.864C96.985 141.994 96.6584 141.534 95.7351 141.359C94.455 141.114 93.2106 140.684 91.9762 140.342C91.7942 140.766 91.5791 141.265 91.3458 141.808C92.2132 142.432 91.3458 142.969 91.0923 143.689L91.9287 143.689C91.968 143.746 92.0074 143.804 92.0467 143.862C91.656 144.15 91.29 144.482 90.87 144.718C90.0254 145.194 89.1534 145.623 88.2887 146.062C87.9712 146.224 87.7324 146.537 87.2794 146.09C87.0955 145.908 86.3608 146.211 85.917 146.392C85.6224 146.513 85.3982 146.807 85.1173 147.044C85.0029 146.682 84.9105 146.389 84.8199 146.101C86.3919 145.569 87.9932 145.027 89.5935 144.485C89.5661 144.366 89.5386 144.247 89.5112 144.129C89.093 144.176 88.6026 144.099 88.2695 144.292C86.897 145.086 85.5757 144.487 84.2608 144.202C83.5755 144.054 82.9102 143.717 82.3045 143.351C82.0291 143.186 81.7912 142.754 81.7656 142.425C81.7216 141.894 81.212 141.311 80.6666 141.239C80.2329 141.181 79.7736 141.029 79.413 140.788C79.0635 140.554 78.9455 140.601 78.6408 140.873C78.0991 141.359 77.486 141.797 76.8345 142.114C76.2535 142.396 75.6697 142.349 75.5983 141.458C75.5837 141.266 75.4281 141.086 75.2863 140.795C75.9058 140.644 76.4777 140.532 77.0285 140.355C77.238 140.287 77.4027 140.071 77.5812 139.915C77.7688 139.751 77.927 139.545 78.1348 139.418C78.3717 139.27 78.8604 139.201 78.8668 139.079C78.8832 138.749 78.7295 138.396 78.5895 138.076C78.5127 137.902 78.3269 137.776 78.0396 137.466C78.595 137.502 78.9537 137.536 79.3124 137.543C79.4277 137.546 79.5457 137.479 79.6619 137.444C79.6125 137.312 79.6015 137.135 79.5082 137.057C79.0232 136.649 78.5163 136.267 77.9408 135.817C77.7193 136.069 77.4339 136.394 77.1493 136.717C77.2097 136.716 77.271 136.716 77.3305 136.716C77.3625 137.189 77.4174 137.663 77.411 138.135C77.4082 138.263 77.2216 138.389 77.12 138.516C77.0056 138.399 76.8885 138.287 76.776 138.168C76.5106 137.888 76.2864 137.539 75.968 137.35C75.7996 137.25 75.4345 137.371 75.2177 137.495C74.8864 137.687 74.611 137.974 74.3027 138.207C73.7838 138.602 73.3172 139.184 72.5403 138.756C71.5457 139.757 70.8659 138.613 70.0286 138.437C69.4284 138.312 68.8958 138.152 68.5307 137.708C68.108 137.196 67.7612 136.611 67.4455 136.024C67.1527 135.476 66.9743 134.867 66.676 134.324C66.6147 134.215 66.2121 134.201 66.0199 134.277C65.5871 134.447 65.0244 134.226 64.9997 133.768C64.9905 133.576 65.2083 133.194 65.265 133.205C65.5615 133.261 65.8387 133.414 66.2908 133.605C66.6705 133.49 66.9514 133.209 66.6037 132.577C66.2615 131.955 65.5706 131.59 65.1323 131.894C64.792 132.129 64.4433 132.404 64.2137 132.739C63.6811 133.52 62.9134 133.86 62.0442 133.875C61.6278 133.884 61.109 133.656 60.8071 133.36C60.3294 132.892 59.9945 132.277 59.7228 131.897C60.5426 131.021 61.3369 130.172 62.1421 129.311C60.6451 128.514 59.4739 128.782 58.5204 130.084C58.1261 130.625 57.7234 131.078 56.9265 131.094C56.426 131.103 55.9318 131.449 55.3691 131.669C55.8138 130.39 56.5449 129.55 57.8415 129.277C58.137 129.213 58.482 129.093 58.6696 128.879C59.2808 128.179 60.0265 128.256 60.8574 128.213C61.9225 128.157 62.9692 127.751 64.1066 127.477C63.8687 127.061 63.736 126.865 63.639 126.651C63.3737 126.062 63.5576 125.936 64.1615 125.81C64.7517 125.686 65.3135 125.343 65.8378 125.015C66.2688 124.746 66.6257 124.359 67.0575 123.987C66.9532 123.509 66.826 122.904 66.687 122.301C66.6641 122.201 66.611 122.091 66.5378 122.025C65.6859 121.265 64.8231 120.514 63.9749 119.75C63.8239 119.615 63.7498 119.387 63.5905 119.268C63.3206 119.066 63.0251 118.812 62.713 118.768C62.1018 118.682 61.4192 118.873 60.8665 118.673C60.2718 118.458 59.7832 117.936 59.2799 117.51C59.2534 117.488 59.4748 117.008 59.6624 116.927C61.4476 116.14 63.2428 115.378 65.0509 114.65C65.459 114.486 65.9312 114.479 66.2432 114.423C66.2432 113.986 66.1197 113.523 66.2798 113.202C66.4189 112.925 66.9294 112.859 67.1875 112.61C67.6944 112.123 68.2782 111.635 68.5664 111.023C68.7888 110.551 68.5847 109.887 68.6158 109.311C68.6643 108.392 68.7009 107.468 68.8501 106.563C68.8922 106.302 69.2993 106.101 69.5665 105.847C69.0258 104.384 69.7651 103.421 70.8988 102.577C71.1065 102.423 71.1294 102.017 71.2373 101.726C70.9519 101.755 70.617 101.696 70.3937 101.828C69.9042 102.118 69.4705 102.505 68.9361 102.911C68.9562 102.952 69.0221 103.091 69.1054 103.267C69.0148 103.314 68.9288 103.366 68.8373 103.404C68.5673 103.515 68.0577 103.636 68.0641 103.727C68.0897 104.147 68.1931 104.595 68.3971 104.96C68.5664 105.262 68.9159 105.461 69.378 105.881C68.3505 105.89 67.9442 106.287 67.7566 107.118C67.602 107.801 66.8608 107.911 66.288 107.48C65.5414 106.92 64.6849 106.484 64.1816 105.644C64.1423 105.578 64.0535 105.538 64.0243 105.471C63.3462 103.929 62.6655 102.388 62.0021 100.84C61.8191 100.411 61.69 99.9594 61.5363 99.5184C62.0725 99.3839 62.6014 99.1789 63.1458 99.1295C64.232 99.0307 64.8633 98.209 65.6804 97.6755C66.0583 97.4294 66.4619 97.2199 66.8645 97.014C67.096 96.895 67.3796 96.8575 67.5892 96.7111C68.3148 96.2024 69.0349 95.6845 69.7157 95.1208C69.885 94.9799 69.9005 94.6532 69.9874 94.4117C68.9553 94.6935 67.9964 94.904 67.3705 95.4786C66.7455 96.0532 66.1041 96.2701 65.3474 96.3991C65.2495 96.4156 65.1378 96.4613 65.071 96.5309C64.1926 97.4413 62.8668 97.8274 62.2061 99.0023C62.0789 99.2283 61.766 99.3491 61.5382 99.5175ZM101.854 37.3062C101.834 37.3611 101.67 37.5844 101.705 37.7674C101.873 38.6257 102.723 38.1636 103.134 38.5817C103.177 38.5177 103.221 38.4536 103.264 38.3905C102.837 38.062 102.41 37.7344 101.854 37.3062ZM97.3152 28.4982C97.2338 27.801 96.2803 27.0955 97.2145 26.5758C96.8494 26.1466 96.4972 25.7312 96.0058 25.1529C96.0817 26.5566 96.6051 27.5576 97.3152 28.4982ZM82.0445 35.8696C82.125 35.4002 81.9886 34.9473 81.2896 34.7908C80.9565 34.7167 80.6408 34.563 80.3068 34.4944C80.004 34.4321 79.6874 34.4349 79.3772 34.4093C79.3598 34.4852 79.3433 34.5612 79.3268 34.6371C80.23 35.047 81.1331 35.457 82.0445 35.8696ZM82.0069 36.5037C81.3911 36.7535 80.8494 36.9713 80.1778 37.244C80.6829 37.4608 81.0187 37.6054 81.3683 37.7555C81.2896 37.9348 81.2154 38.1041 81.123 38.3164C82.06 38.0922 82.3976 37.3035 82.0069 36.5037ZM102.649 26.4998C102.545 25.9389 102.458 25.4604 102.362 24.9397C102.183 25.1767 102.041 25.3634 101.914 25.5318C101.601 25.0898 101.329 24.7073 100.996 24.237C100.762 24.8629 101.645 25.0724 101.134 25.6782C100.984 25.8566 101.449 26.5529 101.643 27.0379C101.877 26.6389 102.027 26.3855 102.178 26.1311C102.308 26.2336 102.439 26.3361 102.649 26.4998ZM82.6895 36.3665C83.5606 36.3088 84.2972 35.6711 84.0932 35.1587C83.8351 34.5063 83.4627 33.8996 83.126 33.2463C82.48 33.8831 83.1919 34.3132 83.245 34.8768C82.297 35.0498 82.7609 35.7626 82.6895 36.3665ZM103.459 33.6699C102.258 33.7102 102.139 33.8648 101.727 35.8733C101.982 36.1469 102.219 36.404 102.567 36.7792C102.655 36.5852 102.756 36.3628 102.879 36.0911C103.277 36.6135 103.556 36.9777 103.858 37.3758C103.714 37.5496 103.557 37.7363 103.286 38.0593C104.518 37.8278 105.199 38.5854 105.991 39.0932L105.963 39.064C106.239 39.3074 106.486 39.5974 106.798 39.7804C107.133 39.9762 107.552 40.0293 107.891 40.2187C109.014 40.8446 109.134 41.4284 108.38 42.4623C108.309 42.5593 108.047 42.6554 108.012 42.6188C107.579 42.1704 107.001 41.7605 106.798 41.2143C106.506 40.4255 106.173 40.1043 105.333 40.0769C104.624 40.054 103.78 40.4173 103.227 39.5242C103.055 39.7758 102.915 39.9817 102.774 40.1885C102.525 40.086 102.295 39.9909 102.065 39.8948L101.958 40.0293C102.17 40.1391 102.382 40.2489 102.57 40.3468C101.897 41.4229 101.058 40.0842 100.439 40.7211C101.252 41.3625 102.045 41.9893 102.835 42.6142C103.073 42.2144 103.238 41.8603 103.474 41.5629C103.735 41.2371 104.035 41.2664 104.487 41.3167C105.118 41.3863 105.688 41.4485 106.161 41.863C106.635 42.2784 107.102 42.7131 107.498 43.2008C107.859 43.6473 107.88 44.1634 107.433 44.6584C107.28 44.5339 107.145 44.4269 107.173 44.4488C107.096 45.212 107.074 46.0803 106.888 46.9139C106.828 47.1866 106.373 47.4382 106.047 47.5681C105.675 47.7155 105.242 47.7036 104.84 47.7823C104.439 47.86 103.952 47.8481 104.004 48.4868C104.009 48.5619 103.893 48.7018 103.812 48.7201C102.788 48.9553 102.32 50.5017 100.919 49.7706C100.773 49.1932 100.566 49.12 99.9898 49.5995C99.6613 49.874 99.3328 50.1531 99.0281 50.4532C98.7188 50.757 98.4397 51.09 98.0893 51.4734C97.5751 50.9208 97.1057 50.4148 96.5054 49.7688C96.9638 49.4952 97.4222 49.2207 97.9173 48.9251C97.7809 48.3715 97.2786 48.3413 97.0178 48.5811C96.1559 49.3716 95.2957 49.4348 94.3661 48.7842C94.6525 48.4658 94.9856 48.0961 95.4357 47.5956C94.8721 47.8728 94.4741 48.0687 94.0248 48.2892C94.0166 47.2406 94.8373 46.1197 95.6846 45.901C96.4816 45.6951 96.6692 45.1552 96.6143 44.4058C96.5942 44.1268 96.7259 43.8221 96.8504 43.5585C96.8723 43.5137 97.3243 43.5585 97.3774 43.6638C97.5092 43.9245 97.5668 44.242 97.5796 44.5394C97.5988 45.007 97.3637 45.5112 98.1579 45.6448C98.4709 45.6969 98.7225 46.1581 98.986 46.4482C99.5872 47.107 100.122 47.0585 100.573 46.3173C100.996 45.6173 101.787 45.8122 102.413 45.6082C102.508 45.578 102.619 45.5954 102.901 45.5807C101.833 44.975 102.342 44.2759 102.667 43.4332C102.285 43.6253 102.039 43.8504 101.813 43.8349C101.545 43.8156 101.292 43.5906 101.036 43.4478C100.852 43.3453 100.614 43.0937 100.504 43.1422C99.7382 43.4862 99.5195 42.8897 99.2139 42.4459C98.868 41.9453 98.7573 41.4357 99.2111 40.9269C99.2376 40.8986 99.2148 40.8281 99.2148 40.6314C98.7225 40.8986 98.2778 41.1191 97.8541 41.3762C97.3655 41.6718 96.8961 41.9984 96.3938 42.3278C95.7798 41.7669 96.2217 41.4586 96.6692 41.1319C96.4075 40.7613 96.1559 40.4063 95.8804 40.0156C96.1943 39.8134 96.4505 39.6505 96.6774 39.5041C97.1834 39.7484 97.6748 39.9845 98.1643 40.2205C98.189 40.1821 98.2128 40.1437 98.2384 40.1053C98.039 39.947 97.8047 39.8179 97.6501 39.6258C97.3417 39.2424 96.7223 39.0063 96.9849 38.3164C97.0096 38.2496 96.8586 38.1059 96.7753 38.0099C95.9957 37.1104 95.2601 36.1634 94.4091 35.3362C93.9617 34.9006 93.3092 34.6755 92.6861 34.3196C92.3503 35.317 91.632 34.9866 91.029 35.0397C91.0446 35.8651 90.6145 36.3875 90.0527 36.9411C89.4845 37.5002 89.1441 38.2889 88.6106 39.1244C88.3132 39.0621 87.7844 38.9523 87.2866 38.8498C87.2646 39.0365 87.2427 39.2241 87.2207 39.4126C87.1567 39.4117 87.0926 39.4107 87.0295 39.4107C86.9984 39.2314 86.9663 39.0521 86.9242 38.8068C86.5738 39.0118 86.2416 39.2067 85.8967 39.408C85.9827 39.9771 86.3048 40.1629 86.8364 40.1336C87.1777 40.1153 87.5291 40.2297 87.8667 40.1958C88.3508 40.1473 88.6042 40.3386 88.7534 40.7796C89.2054 42.1174 89.9319 42.3086 91.3026 41.766C91.4572 41.7038 91.7345 41.6379 91.7995 41.7111C92.5635 42.5868 93.6222 42.5328 94.6278 42.6755C94.7788 42.6966 94.9618 42.864 95.0331 43.0104C95.2125 43.381 94.4942 45.0866 94.1373 45.3282C93.872 45.5075 93.6762 45.7875 93.42 45.9824C93.2589 46.105 93.0448 46.2203 92.8526 46.2231C92.5974 46.2258 92.3247 46.03 92.0877 46.0748C91.7354 46.1398 91.3529 46.2807 91.1004 46.514C91.0098 46.5973 91.1827 47.1216 91.3703 47.3147C91.7281 47.6816 92.181 47.957 92.5873 48.3697C91.4033 48.4328 90.4178 49.2948 89.1386 49.0093C88.8522 48.9452 88.4075 49.5739 88.0415 49.8914C87.6453 50.2354 87.2445 50.5758 86.8657 50.9381C86.3615 51.4194 85.9086 51.0964 85.398 50.9363C84.9158 50.7863 84.3832 50.8018 83.7784 50.7332C83.8452 51.1422 83.8818 51.3645 83.9367 51.693C83.2047 51.6628 82.5514 52.2036 81.7004 51.7672C81.9163 51.4872 82.0756 51.2795 82.2512 51.0507C82.1909 50.9455 82.0994 50.7881 82.0088 50.6325C82.9521 50.2885 82.2512 49.4018 82.7133 48.7815C83.4591 49.2756 84.2268 49.7852 85.0759 50.348C85.0604 50.0881 85.1198 49.8392 85.0292 49.7587C84.2588 49.0743 84.3137 48.1922 84.4638 47.3257C84.6312 46.3548 84.5809 45.4975 83.6768 44.9274C83.6293 45.4398 84.2423 46.1123 83.5002 46.547C83.0757 46.3887 82.6822 46.2432 82.3766 46.1297C82.0646 46.6394 81.8175 47.0438 81.5494 47.483C81.7068 47.6313 81.9337 47.8445 82.222 48.1144C81.9346 48.2407 81.7105 48.3386 81.4012 48.4749C81.1852 47.9707 80.9858 47.4977 80.7799 47.0274C80.6243 46.6733 80.4477 46.3283 80.3013 45.9714C80.1998 45.7225 80.1339 45.4599 80.0515 45.2037C80.3251 45.1772 80.5987 45.1497 80.8833 45.1223C80.2556 44.404 80.7094 42.617 78.6918 42.8878C78.7193 41.1667 77.1756 40.5262 75.8763 39.5315C75.1553 39.7539 74.4983 39.483 74.0481 38.5689C73.7516 37.9659 73.2694 37.4554 72.8796 36.8963C72.4056 36.2173 71.7267 36.3601 71.0734 36.447C70.5518 36.5165 70.0385 36.6858 69.5169 36.7105C69.2324 36.7233 68.9377 36.5275 68.5305 36.3857C69.053 35.6217 69.7256 35.3508 70.4567 35.3005C71.0633 35.2584 71.4394 35.2154 71.3918 34.4285C71.3589 33.8813 71.6398 33.3222 71.7057 32.7586C71.7294 32.5481 71.5757 32.1455 71.4421 32.1171C70.8062 31.9808 70.9215 31.4602 71.0734 31.2021C71.7477 30.0556 70.9727 29.201 70.5692 28.2768C70.5006 28.1222 70.2343 28.0096 70.0403 27.9639C69.3504 27.7992 68.6513 27.6683 67.9532 27.532C67.0766 27.3609 66.2293 27.4688 65.554 28.0645C65.231 28.35 64.8485 28.8487 64.8888 29.2065C64.9592 29.8323 64.8256 30.6769 65.8001 30.9194C66.3967 31.0685 66.921 32.1812 66.7042 32.7485C66.6603 32.8629 66.2897 32.9608 66.1277 32.9031C65.2886 32.6012 64.4688 32.2462 63.5455 31.8701C63.5455 32.5371 63.5748 33.0642 63.5391 33.5867C63.4696 34.5822 63.1887 34.7771 62.2096 34.5593C61.5224 34.4074 60.7858 34.0497 60.2396 34.7808C60.0319 35.0589 59.8296 35.5695 59.9486 35.823C60.2871 36.5458 60.1133 37.0967 59.5396 37.7289C60.8737 38.2926 61.1958 39.5032 61.6752 40.7567C61.3788 40.7037 61.1839 40.6698 60.989 40.636C60.9011 40.732 60.8142 40.829 60.7273 40.926C60.9954 41.0276 61.2635 41.1301 61.3705 41.1703C61.0759 42.0606 60.8096 42.8494 60.558 43.6427C60.5196 43.7617 60.4994 43.9373 60.5589 44.0261C60.9533 44.6154 60.9551 45.0326 60.3265 45.5478C59.7024 46.0593 59.2248 46.7712 58.7563 47.4464C58.5157 47.7941 58.3327 48.2452 58.297 48.6643C58.2009 49.8273 57.8084 50.671 56.682 51.2621C56.0479 51.5951 55.0706 51.4798 54.7888 52.4104C54.6323 52.9274 54.5701 53.5048 54.2929 53.9476C53.7759 54.7748 53.7091 55.6606 53.6203 56.5838C53.581 56.9919 53.2525 57.3808 53.0246 57.7596C52.8481 58.0524 52.5662 58.2903 52.4335 58.5969C52.0291 59.5366 51.0015 59.8953 50.1451 59.3142C49.5146 58.886 48.94 58.3727 48.3059 57.9481C48.0076 57.7495 47.6233 57.5464 47.2875 57.5601C45.8976 57.6169 44.6202 57.2271 43.4005 56.646C43.1223 56.5143 42.8304 56.0833 42.8176 55.7777C42.7755 54.7062 42.1149 53.9961 41.4972 53.2577C41.3426 53.072 41.0105 52.8469 40.8329 52.8972C39.6791 53.2248 38.9462 52.3958 38.0824 51.9547C37.5599 51.6885 37.0896 51.3215 36.5918 51.0059C35.5816 50.3663 35.5066 50.1869 35.7811 48.9324C35.0757 48.9526 34.2979 49.7303 33.7223 49.0084C33.2969 48.474 33.1779 47.6953 32.8897 46.9404C31.5519 46.7455 31.5519 46.7455 31.6114 45.5002C31.4558 45.6859 31.2985 45.8689 31.1456 46.0565C31.0532 46.1682 30.9581 46.385 30.8821 46.3786C30.7439 46.3649 30.6122 46.2276 30.4896 46.1261C30.3688 46.0263 30.2608 45.8104 30.1519 45.814C29.4327 45.8342 28.9029 45.5487 28.5424 44.9338C28.2826 45.0903 27.89 45.1854 27.7857 45.4124C27.481 46.0776 27.1424 46.0584 26.6053 45.6923C26.0947 45.3437 25.5283 45.0784 24.9839 44.7746C23.7916 45.2138 22.4283 45.5112 22.1547 47.1793C21.0338 45.8415 21.0384 45.2641 22.0202 44.1377C22.1711 43.9639 22.1062 43.596 22.2626 43.435C22.5829 43.1047 22.6277 42.3928 23.3918 42.5877C23.5428 42.6261 23.7816 42.3178 24.0286 42.132C24.0936 42.207 24.1943 42.3242 24.3818 42.541C24.348 42.2592 24.3297 42.1155 24.3141 41.9865C24.8485 41.7825 25.3673 41.572 25.8953 41.3872C26.2768 41.2536 26.5797 41.1264 27.0299 41.4796C27.6338 41.9527 27.5304 41.2344 27.6311 40.7906C28.6513 41.5107 29.7036 41.9755 31.1539 41.6782C30.657 41.5482 30.3496 41.4677 29.8262 41.3314C30.1647 41.1648 30.3084 41.0331 30.4502 41.034C31.1127 41.0422 31.7761 41.0852 32.4386 41.1182C32.5676 41.1246 32.7414 41.2005 32.821 41.1429C33.6711 40.5207 34.4809 41.1209 35.3108 41.1905C36.1435 41.26 36.9816 41.249 37.818 41.2655C38.2316 41.2737 38.647 41.2481 39.0596 41.2673C40.3498 41.3259 41.6418 41.3652 42.9283 41.475C44.6422 41.6223 45.4364 41.2719 46.1565 39.6971C46.8611 38.1535 48.4148 37.8049 49.6391 36.9841C50.2823 36.5522 50.9146 36.0966 51.5021 35.5924C51.9376 35.2163 52.644 35.2932 53.2058 35.8751C53.8161 35.4414 54.8565 35.5027 55.433 36.0334C55.8145 36.3848 56.1421 36.7956 56.531 37.1369C57.1312 37.664 57.8367 37.3465 58.4782 37.2568C58.8963 37.1982 59.2797 36.8899 59.8306 36.619C59.4536 36.3427 59.1626 36.1295 58.76 35.8349C59.2431 34.9692 59.7162 34.0579 60.2624 33.1914C60.3841 33.0001 60.7739 32.9946 61.0192 32.8629C61.7365 32.4758 61.9131 31.7621 62.1547 31.053C62.3505 30.4774 62.6827 29.9302 63.0432 29.4343C63.3525 29.0079 63.4312 28.6456 63.4302 28.0929C63.4284 27.2648 63.7441 26.4038 64.0671 25.6168C64.3636 24.8958 64.8201 24.2315 65.2722 23.5892C65.4259 23.3696 65.8477 23.1134 66.0353 23.1811C66.9302 23.5068 67.4966 22.9715 68.1234 22.5351C69.1317 21.8305 70.1373 21.1204 71.1695 20.4516C71.4714 20.2558 71.8676 20.2109 72.2043 20.0627C72.4322 19.962 72.6326 19.801 72.8467 19.6674L72.7122 19.3517C72.2885 19.4807 71.8438 19.5649 71.4449 19.7461C70.2938 20.2677 69.1619 20.834 68.0163 21.3657C67.9001 21.4187 67.7281 21.3538 67.5368 21.2577C68.0639 20.8414 68.2762 20.0828 69.1299 20.0508C69.365 20.0407 69.6121 19.7726 69.8097 19.5796C70.0129 19.3819 70.1629 19.1303 70.3972 18.8219C70.7888 19.4405 71.099 19.1925 71.5529 18.9235C72.1522 18.5675 72.8851 18.4468 73.5366 18.1668C73.898 18.0103 74.372 17.8099 74.5129 17.5016C74.9201 16.6085 75.6659 16.3971 76.4967 16.2434C77.312 16.0924 78.1199 15.8197 78.937 15.7914C79.7551 15.7639 80.6454 15.8106 81.3875 16.1116C82.7252 16.6561 84.0529 17.1301 85.5051 17.1392C85.7247 17.1401 85.9589 16.9718 86.1639 16.8455C86.6543 16.5417 87.131 16.2169 87.6133 15.9003C87.6755 15.9707 87.7377 16.0412 87.8017 16.1107C87.7084 16.3358 87.616 16.56 87.5382 16.7503C88.3462 16.6057 89.1734 16.4593 90.0243 16.3065C90.0381 16.2333 90.0646 16.086 90.0875 15.9579C90.6639 16.0339 91.2001 16.1043 91.8141 16.1848C91.6952 15.7264 91.6338 15.4885 91.6219 15.4428C92.2076 15.2643 92.6907 15.1115 93.1775 14.9715C93.3687 14.9166 93.5664 14.8553 93.7613 14.8535C95.1146 14.8462 96.3242 14.4811 97.177 13.3712C97.8166 12.5367 98.3794 11.6445 99.04 10.6874C98.8478 10.7451 98.7408 10.7926 98.6282 10.8091C98.4196 10.8402 98.2101 10.853 98.0005 10.8741C98.0472 10.7304 98.1561 10.5721 98.1296 10.444C98.0554 10.0862 97.9246 9.74037 97.8148 9.38992C97.7032 9.03672 97.5888 8.68444 97.4076 8.11438C98.0573 8.49686 98.4736 8.74117 98.889 8.98456C98.2705 8.62862 98.62 7.43635 97.5037 7.44093C97.2859 7.44184 97.0315 6.97427 96.8522 6.68604C95.6828 4.80934 94.615 2.88139 94.0669 0.714628C94.0138 0.502344 94.0596 0.264439 94.1437 -1.1074e-06C95.304 1.82455 95.5803 4.23562 97.7178 5.38763C97.8981 4.80476 98.0637 4.26947 98.2604 3.63354C98.6475 3.73327 99.0848 3.84674 99.5204 3.95837C99.6677 2.99119 99.8901 3.12479 100.882 3.06897C102.208 2.99394 102.556 4.08098 103.36 4.60529C103.441 4.65836 103.526 4.77273 103.534 4.86515C103.577 5.40684 103.589 5.95036 103.626 6.49297C103.681 7.2991 104.365 7.13806 104.77 7.30093C104.815 6.71623 104.814 6.15716 104.914 5.61638C105 5.13417 105.351 5.00789 105.826 5.14789C106.13 5.23939 106.453 5.26318 106.769 5.31717C106.845 5.24946 106.92 5.18266 106.995 5.11495C107.239 5.93755 107.482 6.76015 107.726 7.58276C107.628 7.55988 107.53 7.53792 107.432 7.51504C107.179 7.72641 106.818 7.89203 106.705 8.16196C106.577 8.46758 107.356 8.66248 107.872 8.53254C108.58 8.35412 109.317 8.17203 110.034 8.20131C110.425 8.21778 110.864 8.55359 110.806 9.20874C110.767 9.65802 110.92 10.1787 111.14 10.5822C111.492 11.2218 111.79 11.8669 112.076 12.5303C112.399 13.2806 112.182 14.062 112.554 14.7473C112.619 14.8672 112.525 15.1811 112.404 15.2726C111.864 15.6816 111.289 16.043 110.771 16.441C109.455 17.9563 109.102 20.2439 106.829 20.9557C107.196 21.588 107.634 21.9961 107.263 22.7007C107.115 22.9825 107.453 23.4949 107.492 23.9094C107.523 24.2462 107.439 24.5929 107.405 24.9352C107.319 24.9617 107.232 24.9891 107.146 25.0157C107.383 25.2362 107.621 25.4558 108.035 25.8401C107.372 25.8099 106.88 25.787 106.314 25.7614C106.483 26.0542 106.632 26.3123 106.822 26.6435C106.503 26.6261 106.257 26.6115 105.937 26.5941C106.507 27.2181 106.249 27.5485 105.671 27.9355C105.233 28.2292 104.837 28.7005 104.628 29.1827C104.46 29.5716 104.375 30.0034 103.918 29.955C103.689 29.9302 103.501 29.5286 103.168 29.1543C103.041 29.5533 102.777 29.9586 102.829 30.3164C102.948 31.1243 102.678 31.5782 101.908 31.7246C102.278 32.0366 102.62 32.323 102.927 32.5811C102.949 32.5051 103.008 32.3029 103.106 31.9707C103.674 32.5655 103.725 33.0971 103.433 33.6937L103.459 33.6699ZM117.271 57.7239C117.431 58.4038 117.593 59.0818 117.747 59.7626C117.978 60.7874 117.86 60.9613 116.852 61.104C116.754 61.1177 116.656 61.1415 116.329 61.2056C116.62 61.4023 116.745 61.5496 116.893 61.5762C117.792 61.7436 117.794 61.7345 117.637 62.3704C117.054 62.5708 116.549 62.7437 116.044 62.9176C116.06 62.9798 116.075 63.042 116.092 63.1042C116.668 63.0173 117.245 62.9295 117.883 62.8334L117.883 63.6441C118.077 63.5764 118.242 63.5187 118.627 63.3842C118.665 63.957 118.67 64.4777 118.746 64.9873C118.787 65.2564 118.888 65.5693 119.07 65.7541C119.633 66.3251 119.501 66.9647 119.333 67.6107C119.213 68.0728 119.079 68.5376 118.879 68.9686C118.788 69.1607 118.522 69.2715 118.25 69.2797C117.821 69.8379 117.4 70.4033 116.938 70.9331C116.91 70.9652 116.443 70.7593 116.379 70.5891C116.206 70.1261 116.14 69.6237 116.045 69.1983C115.786 69.1763 115.542 69.1553 115.162 69.1223C115.312 69.3483 115.453 69.5277 115.558 69.7262C115.651 69.9065 115.706 70.1078 115.778 70.2999C115.569 70.3292 115.31 70.4491 115.158 70.3695C114.855 70.2112 114.61 69.944 114.176 69.5844C114.538 70.2514 114.765 70.7858 115.094 71.2479C115.52 71.8463 115.405 72.8849 114.756 73.1877C114.584 73.2683 114.191 73.1429 114.052 72.9809C112.976 71.7118 111.761 70.7154 110.059 70.3713C109.442 70.2469 108.958 69.9852 108.344 70.4903C108.113 70.6806 107.486 70.3887 107.079 70.3228C107.359 70.0703 107.856 69.6905 107.825 69.6402C107.453 69.0454 107.224 69.8324 106.869 69.782C106.481 69.7262 106.088 69.6997 105.697 69.6667C105.578 69.6567 105.425 69.6155 105.343 69.6704C104.714 70.0968 104.634 69.6375 104.431 69.3547L103.46 68.7197C102.548 68.2686 101.519 68.3464 100.517 68.5166C100.161 67.6555 100.722 67.4021 101.277 67.1541C100.969 67.0324 100.708 66.929 100.457 66.8293C100.374 67.166 100.269 67.5897 100.164 68.0133C100.086 68.049 100.01 68.0847 99.9318 68.1194C99.51 67.3902 98.9509 66.7039 98.6965 65.9207C98.3104 64.7229 98.2134 63.4821 96.9689 62.6751C96.4968 62.3695 96.3248 61.4883 96.1756 60.8332C96.0466 60.264 95.805 59.9547 95.2771 59.7223C94.0885 59.2008 92.9237 58.6243 91.7662 58.0359C91.2675 57.7816 91.5337 57.3872 91.7396 57.0981C91.865 56.9215 92.1258 56.8409 92.3298 56.7137C92.2365 55.8683 92.4661 55.5928 93.3867 55.3888C94.5551 55.1308 95.7108 54.8114 96.8857 54.5918C97.7604 54.4271 98.6297 54.4967 99.2913 55.2223C99.4349 55.3806 99.5438 55.5791 99.6399 55.7731C99.8778 56.2517 100.269 56.388 100.724 56.2206C100.579 55.9104 100.318 55.5938 100.337 55.2946C100.346 55.1417 100.902 54.8553 101.132 54.9185C101.686 55.0685 102.375 55.2671 101.844 56.1812C102.223 56.0952 102.462 56.0412 102.675 55.9936L102.675 55.2113C102.912 55.2223 103.185 55.1582 103.378 55.2552C104.642 55.8893 105.919 55.4721 107.211 55.4309C108.194 55.3989 108.614 54.9404 108.86 54.2029C109.015 53.7344 108.916 53.1845 108.964 52.673C108.983 52.4681 109.034 52.146 109.162 52.0929C109.626 51.8989 110.123 51.7388 110.618 51.6965C110.745 51.6857 110.914 52.1524 111.086 52.4388C111.332 52.297 111.671 52.1194 111.991 51.9117C112.518 51.5695 112.877 51.7964 113.001 52.2979C113.189 53.0518 113.198 53.8534 113.421 54.5927C113.54 54.9862 113.952 55.29 114.298 55.7182C114.508 55.3577 114.623 55.161 114.749 54.9478C114.82 54.9523 114.912 54.9295 114.966 54.9642C115.719 55.4382 116.201 56.0897 116.228 57.0056C116.252 57.7541 116.829 57.6617 117.295 57.7468L117.271 57.7239ZM40.4992 155.742C39.7681 155.742 39.0745 155.892 38.4825 155.71C37.3671 155.369 36.2819 154.894 35.2388 154.367C34.1655 153.823 33.1544 153.158 32.1268 152.529C31.8779 152.378 31.6016 152.199 31.4607 151.96C31.1862 151.495 30.9309 150.995 30.8 150.475C30.7296 150.195 30.9345 149.846 31.0151 149.527C31.0855 149.537 31.1569 149.546 31.2274 149.557C31.0974 149.304 30.9666 149.051 30.8559 148.836C31.0526 148.474 31.1944 148.127 31.4122 147.835C31.5943 147.592 31.8313 147.306 32.0994 147.227C32.7179 147.045 33.3703 146.975 34.0053 146.861C33.945 146.541 33.9056 146.331 33.8534 146.056C34.268 146.273 34.5946 146.445 34.9204 146.615C34.9451 146.58 34.9689 146.544 34.9927 146.509C34.7218 146.198 34.451 145.887 34.1252 145.515C34.3293 145.442 34.4601 145.372 34.601 145.347C36.1035 145.081 36.8675 143.784 36.3999 142.31C36.0843 141.318 36.0596 140.21 35.2104 139.434C35.1345 139.364 35.1217 139.177 35.1427 139.054C35.2992 138.17 35.0302 137.398 34.6138 136.629C34.3055 136.06 34.5141 135.538 35.0256 135.168C35.1473 135.079 35.4328 135.022 35.5133 135.096C36.4603 135.948 37.5675 135.586 38.5411 135.357C39.9045 135.036 41.2358 135.074 42.4629 135.559C42.9817 135.763 43.2974 136.638 43.5673 137.269C43.8336 137.892 43.8464 138.627 44.1245 139.242C44.2892 139.605 44.712 139.924 45.0935 140.092C45.4669 140.258 45.8338 140.254 45.8118 140.83C45.8036 141.024 46.1476 141.235 46.3371 141.433C46.6033 141.711 46.9071 141.959 47.1377 142.263C47.4305 142.648 47.5705 143.049 47.0434 143.415C46.9108 143.508 46.9034 143.783 46.8687 143.884C47.4149 144.286 47.8935 144.638 48.3867 145.002C48.4599 144.942 48.5724 144.854 48.8845 144.606C48.8021 144.993 48.7966 145.178 48.7207 145.325C48.6548 145.454 48.5093 145.542 48.3986 145.648C48.5413 145.697 48.6841 145.747 48.8168 145.794C48.6356 146.571 48.4517 147.354 48.2421 148.252C48.0307 148.114 47.7892 147.961 47.5513 147.8C47.0343 147.449 46.5942 147.436 46.2309 148.033C45.9482 148.496 45.5721 148.907 45.3397 149.39C45.2582 149.558 45.4175 150.02 45.5803 150.093C46.0305 150.293 46.5402 150.364 47.0288 150.476C47.6904 150.629 48.3547 150.773 49.0025 150.918C48.9824 151.097 48.9888 151.186 48.9686 151.192C47.5714 151.649 46.4157 152.732 44.862 152.787C44.7056 152.792 44.4475 152.803 44.4091 152.888C43.9736 153.86 42.8947 154.001 42.192 154.624C41.8535 154.924 41.3776 155.064 40.9842 155.307C40.7792 155.436 40.6173 155.634 40.4992 155.742Z" fill="#B7842C"/>
<path opacity="0.4" fill-rule="evenodd" clip-rule="evenodd" d="M117.295 57.7466C117.253 57.4081 117.212 57.0686 117.175 56.7694C115.983 56.4693 116.144 55.2386 115.568 54.5377C114.954 53.7901 114.216 53.0636 114.468 51.9381C113.595 51.9939 112.446 50.9984 112.222 50.2481C112.08 49.7722 111.656 49.3815 111.475 49.1208C111.027 49.0411 110.559 49.0686 110.5 48.9258C110.341 48.5397 110.293 48.0785 110.32 47.654C110.349 47.2157 110.522 46.7856 110.631 46.3519C110.7 46.0783 110.732 45.7883 110.843 45.533C111.05 45.0562 111.373 44.6006 110.797 44.1449C110.175 44.4139 109.929 44.9355 109.977 45.6464C109.999 45.9877 109.992 46.3382 109.936 46.6749C109.854 47.1772 109.616 47.6256 109.026 47.5506C108.45 47.4774 107.962 47.0793 108.09 46.4828C108.346 45.3088 108.684 44.1421 109.116 43.0222C109.361 42.3835 109.945 42.6918 110.325 42.9572C110.853 43.3259 111.245 43.5803 111.634 42.7778C111.738 42.5637 112.217 42.5024 112.538 42.4439C112.631 42.4265 112.891 42.7065 112.867 42.7751C112.765 43.0578 112.645 43.4421 112.418 43.5501C111.697 43.896 111.827 44.4688 111.932 45.0251C112.005 45.4058 112.183 45.7654 112.291 46.0683C112.594 46.1634 112.871 46.2503 113.149 46.3373C113.059 46.5953 112.968 46.8533 112.847 47.1983C113.154 47.0144 113.46 46.8314 113.812 46.62C113.587 46.0143 113.73 45.3024 114.228 45.1816C114.819 45.0389 115.417 45.0462 115.626 45.8056C116.481 44.5173 117.106 46.2275 117.728 46.0179C118.26 46.5386 118.741 47.0107 119.361 47.6192C119.354 47.8626 119.106 48.0813 118.621 48.0465C118.09 48.0081 117.562 47.9349 117.252 48.5498C117.208 48.6376 116.92 48.6028 116.798 48.6175C116.686 49.333 116.571 50.0641 116.456 50.7952C116.486 50.8016 116.516 50.808 116.546 50.8144C116.828 50.2041 117.104 49.5911 117.392 48.9844C117.603 48.5415 117.928 48.5049 118.383 48.6321C118.721 48.7264 119.105 48.6504 119.617 48.6504C119.984 49.1683 120.157 49.84 119.741 50.5848C120.67 51.1301 120.707 51.3104 120.042 51.8137C120.29 52.1897 120.617 52.5338 120.756 52.9428C120.876 53.2923 120.782 53.7151 120.782 54.2888C120.796 54.3235 121.02 54.5816 120.965 54.7481C120.639 55.7418 120.565 56.8563 119.775 57.6441C119.5 57.9196 119.445 58.3002 118.91 58.4979C118.085 58.8026 117.804 58.5299 117.485 57.937C117.44 57.8528 117.345 57.7951 117.272 57.7247C117.272 57.7237 117.295 57.7466 117.295 57.7466ZM103.432 33.6934C104.371 33.4116 103.652 32.7757 103.698 32.3173C103.743 31.8726 103.6 31.4114 103.561 30.9557C103.496 30.1944 103.871 30.0096 104.545 30.2896C104.674 30.0434 104.733 29.757 104.903 29.6491C105.148 29.4944 105.498 29.3691 105.759 29.4267C105.93 29.4652 106.141 29.8568 106.127 30.0782C106.094 30.6162 105.942 31.146 105.985 31.7811C106.139 31.4983 106.311 31.2247 106.437 30.931C106.496 30.7938 106.412 30.587 106.481 30.4643C106.639 30.1908 106.851 29.9501 107.041 29.6957C107.262 29.8778 107.482 30.059 107.706 30.2429C108.256 29.4761 108.561 30.2704 109.06 30.6968C108.837 29.6866 107.557 29.197 108.178 28.0533C108.525 27.9837 108.931 27.9014 109.337 27.8199L109.12 28.0267C109.742 28.5209 110.363 29.0131 110.982 29.5091C111.104 29.607 111.195 29.7506 111.33 29.822C112.189 30.2777 112.324 30.9273 111.722 31.7216C111.597 31.8854 111.558 32.1233 111.417 32.2642C111.184 32.4966 110.922 32.7235 110.629 32.8654C110.431 32.9605 110.16 32.891 109.924 32.9203C109.704 32.9477 109.49 33.0072 109.5 33.0054C109.046 33.4125 108.719 33.7063 108.37 34.021C108.457 34.0759 108.637 34.1885 108.816 34.2992C108.856 34.6762 108.439 34.7036 107.104 34.4795C107.215 34.5362 107.322 34.6002 107.437 34.6469C107.583 34.7082 107.733 34.7924 107.885 34.8025C108.805 34.861 109.044 35.6818 109.461 36.2637C109.568 36.4138 109.321 36.8182 109.235 37.1056C109.011 37.0195 108.665 36.9958 108.582 36.8356C108.031 35.7651 106.866 35.8941 105.984 35.5107C105.714 35.3926 105.209 35.8501 104.796 36.002C104.552 36.0917 104.277 36.0972 104.017 36.1411C103.995 35.8941 103.974 35.6479 103.951 35.3908C103.17 35.3716 102.973 35.1209 103.2 34.3321C103.266 34.1061 103.371 33.8902 103.458 33.6697L103.432 33.6934ZM53.0931 147.517C54.6285 148.527 53.9788 149.701 53.4993 150.788C53.0116 151.895 52.3812 152.94 51.8395 153.96C50.7973 153.896 50.3059 154.033 49.6352 155.667C49.1329 155.219 49.132 154.204 49.6499 153.689C49.8567 153.484 50.1184 153.337 50.3242 153.132C50.8623 152.594 50.7946 152.131 50.1357 151.708C49.5071 151.307 49.9857 150.78 50.0406 150.349C50.1037 149.849 50.3993 149.379 50.596 148.889C51.7068 149.295 51.9383 149.171 52.383 147.833C52.5459 147.34 52.7152 146.85 52.9448 146.172C53.3291 146.076 54.0273 146.001 54.2167 145.099C54.644 145.682 55.0256 146.216 54.5809 146.735C54.2753 147.091 53.6988 147.215 53.0931 147.517ZM57.7173 139.121C56.7895 138.201 56.4473 138.173 55.6649 138.785C54.814 138.395 54.0938 137.944 53.3115 137.748C52.7735 137.613 52.6316 137.374 52.7067 136.955C52.8284 136.27 53.0132 135.595 53.2017 134.925C53.3682 134.333 55.1187 133.578 55.6118 133.939C55.8342 134.101 55.8562 134.539 56.0419 135.056C56.4637 135.521 57.0558 136.169 57.6423 136.822C57.7118 136.9 57.7429 137.01 57.807 137.094C58.065 137.439 58.5536 137.797 58.5308 138.118C58.5051 138.469 58.0083 138.788 57.7173 139.121ZM53.6086 132.648C52.9425 132.488 52.4575 132.373 51.8454 132.227C51.9094 133.263 51.2113 133.968 51.3906 135.015C51.5041 135.675 50.8343 136.471 50.5149 137.204C50.4225 137.188 50.3301 137.171 50.2368 137.156C50.2944 136.403 50.3219 135.644 50.4188 134.897C50.503 134.244 50.6403 133.596 50.8022 132.959C50.9157 132.514 51.0218 131.993 51.6935 132.149C51.8573 130.94 52.7091 130.178 53.6059 129.652C54.9308 128.874 56.3088 128.224 57.2806 126.97C57.4023 126.812 57.6594 126.758 57.8753 126.643C58.1919 127.827 57.2412 128.31 56.7883 129.028C56.5925 129.337 56.3381 129.61 56.1084 129.897C55.6656 130.453 55.4377 131.23 54.5126 131.294C54.4019 131.303 53.7541 131.616 53.938 132.205C53.9819 132.348 53.6379 132.611 53.6086 132.648ZM48.8102 102.558C47.9766 102.994 47.3333 103.249 46.4384 102.837C45.1528 102.243 43.7711 101.853 42.4206 101.405C41.856 101.219 41.4415 100.899 41.4863 100.296C41.512 99.9405 41.7041 99.3778 41.9503 99.2972C42.6274 99.0703 43.3502 98.8791 44.0722 99.3869C44.3815 99.6047 44.8966 99.5114 45.2974 99.6266C45.7458 99.7547 46.4796 99.8719 46.5565 100.145C46.8886 101.325 47.7259 101.962 48.8102 102.558ZM106.969 97.5464C107.486 97.9087 108.043 98.2427 108.527 98.6599C108.764 98.8631 108.849 99.2346 109.038 99.5054C109.251 99.8119 109.508 100.088 109.74 100.383C109.927 100.618 110.219 100.849 110.246 101.105C110.265 101.275 109.917 101.618 109.702 101.646C109.455 101.679 109.129 101.501 108.916 101.323C108.076 100.616 107.372 99.6344 106.417 99.2117C105.471 98.7944 104.331 98.3205 103.212 98.8137C102.825 98.9838 102.532 99.3636 102.187 99.6353C102.056 99.7387 101.896 99.8101 101.75 99.8943C101.674 99.7461 101.498 99.5566 101.54 99.4569C101.863 98.6773 102.219 97.9124 102.59 97.1547C102.628 97.076 102.834 97.0266 102.95 97.0458C103.966 97.2215 104.976 97.4311 105.996 97.5939C106.292 97.6415 106.607 97.5674 106.969 97.5464ZM81.0565 146.775C80.6713 147.48 79.5394 148.018 78.8055 147.905C78.3005 147.828 77.7194 147.676 77.2848 147.847C76.2966 148.235 76.1502 147.548 75.851 146.955C75.6295 146.518 75.3642 146.103 75.0348 145.742C74.9643 145.427 74.9231 145.103 74.8142 144.804C74.7182 144.541 74.548 144.306 74.3604 143.97C74.1573 143.937 73.7803 143.914 73.4344 143.799C73.3035 143.755 73.1452 143.482 73.17 143.345C73.2285 143.034 74.5434 142.644 74.8252 142.824C75.6487 143.347 76.4567 143.838 76.572 144.993C76.5985 145.257 77.2628 145.457 77.5419 145.742C77.7414 145.984 77.8969 146.357 78.1477 146.441C78.6024 146.593 79.1148 146.57 79.6025 146.625C80.0976 146.681 80.5908 146.743 81.0849 146.802L81.0565 146.775ZM111.887 83.007C111.607 83.2513 111.322 83.4901 111.048 83.7408C110.475 84.2642 109.921 84.8114 109.324 85.3055C109.225 85.3879 108.915 85.3055 108.763 85.2058C108.651 85.1326 108.603 84.9093 108.592 84.7492C108.58 84.5634 108.638 84.374 108.656 84.267C109.193 84.1251 109.694 83.9925 110.197 83.8607L110.173 83.6676C109.201 83.4361 108.231 83.2055 107.259 82.975C107.235 82.8798 107.209 82.7856 107.183 82.6904C107.846 82.3171 108.496 81.9209 109.174 81.5777C109.505 81.4103 109.982 81.424 109.8 80.8411C109.794 80.8192 109.806 80.7707 109.816 80.7679C110.395 80.6517 110.978 80.4642 111.555 80.476C111.702 80.4797 111.844 81.1184 111.969 81.4707C112.055 81.7095 112.107 81.9593 112.367 82.1935C112.272 82.4012 112.175 82.609 112.079 82.8167C112.016 82.8798 111.951 82.9439 111.887 83.007ZM89.6715 75.6172C88.9038 75.1121 89.1335 75.9036 88.805 76.1314C88.5442 76.0427 88.2285 75.9347 87.9632 75.8441C87.3336 76.2687 86.7325 76.6768 86.1276 77.0812C86.0178 77.1535 85.8101 77.191 85.7936 77.2734C85.6024 78.2296 84.8539 77.6696 84.368 77.7812C84.2738 77.8041 84.0212 77.5296 83.9856 77.3603C83.7898 76.4471 83.6388 75.5248 83.4384 74.4185C83.8135 74.7324 84.0789 74.9538 84.3873 75.2119C84.4669 75.0664 84.5556 74.9035 84.6343 74.7598C85.0095 74.8687 85.3828 74.9767 85.7836 75.0938C85.8778 75.2164 86.0013 75.5138 86.1441 75.522C86.3362 75.5349 86.6547 75.3738 86.726 75.2055C87.0243 74.4991 87.5724 74.3362 88.2651 74.2657C89.0621 74.1852 89.612 74.6006 89.6715 75.6172ZM113.984 34.8292C114.311 35.7003 113.982 36.1624 113.009 36.2511C112.79 36.2712 112.584 36.4231 112.371 36.5137C112.556 36.6812 112.715 36.9172 112.933 37.0033C113.706 37.3116 113.713 37.2924 114.003 37.986C113.503 37.9311 113.058 37.8808 112.693 37.8414C112.56 38.1443 112.46 38.3749 112.36 38.6055C112.135 38.4966 111.885 38.4197 111.689 38.2715C111.157 37.8689 110.915 37.3894 111.185 36.683C111.293 36.4048 111.134 36.0214 111.088 35.6865C111.045 35.3782 110.924 35.0616 110.961 34.7642C110.988 34.5528 111.22 34.3671 111.361 34.1694C111.524 34.2975 111.687 34.4256 111.83 34.5382C111.908 34.3479 111.977 34.0496 112.138 33.8144C112.361 33.4887 112.579 33.3331 112.9 33.8217C113.17 34.2317 113.628 34.5162 114.003 34.8566L113.984 34.8292ZM27.9005 163.043C27.8227 163.165 27.6608 163.42 27.432 163.78C27.0834 163.58 26.6881 163.429 26.3898 163.168C25.397 162.299 24.4097 161.418 23.481 160.481C23.0976 160.096 22.5193 159.71 23.1443 158.95C23.5999 158.394 23.9275 158.408 24.3356 158.838C24.7465 159.273 25.0804 159.78 25.4693 160.237C26.2407 161.142 27.0258 162.035 27.9005 163.043ZM94.3207 67.2904C94.4287 67.3353 94.5879 67.4021 94.781 67.4817C94.899 67.2822 95.0143 67.0882 95.1799 66.8055C95.3107 67.0644 95.4068 67.2557 95.5569 67.5558C95.6127 67.2447 95.6502 67.0397 95.7371 66.5658C96.0977 67.005 96.471 67.2648 96.5067 67.564C96.5341 67.7928 96.1333 68.0728 95.9412 68.307C95.9961 68.3949 96.1526 68.5568 96.2056 68.7481C96.342 69.2458 96.5698 69.7756 96.4966 70.2524C96.4445 70.5937 96.0144 71.0027 95.6621 71.1299C95.3922 71.2278 94.8359 71.0375 94.6565 70.7922C93.8778 69.7308 93.4404 68.5742 94.3207 67.2904ZM116.339 107.646C116.267 107.436 116.068 107.144 116.145 107.011C116.251 106.827 116.559 106.748 116.789 106.644C117.112 106.5 117.436 106.298 117.775 106.264C118.113 106.23 118.485 106.333 118.809 106.461C118.913 106.5 119.012 106.884 118.941 106.978C118.666 107.335 118.3 107.623 118.009 107.97C117.807 108.212 117.509 108.534 117.542 108.782C117.633 109.485 117.235 109.734 116.719 109.949C116.596 109.998 116.473 110.043 116.349 110.09C116.108 110.178 115.866 110.265 115.625 110.353C115.559 110.032 115.432 109.709 115.442 109.39C115.463 108.658 115.598 107.957 116.339 107.646ZM33.1003 164.797C32.662 164.945 32.2219 165.213 31.7827 165.213C30.9161 165.212 30.1896 165.819 30.2464 166.763C30.002 166.692 29.7458 166.685 29.5885 166.558C28.8272 165.942 28.0778 165.309 27.3613 164.642C27.2149 164.507 27.2286 164.203 27.1691 163.977C27.3714 164.012 27.5791 164.035 27.7785 164.089C27.9487 164.134 28.2123 164.317 28.2608 164.267C28.9077 163.612 29.2609 164.248 29.7971 164.477C30.3699 164.723 31.1065 164.613 31.7717 164.607C32.1816 164.603 32.5906 164.504 33.0006 164.447C33.0344 164.563 33.0674 164.68 33.1003 164.797ZM116.656 127.575C116.763 127.69 117.074 127.878 117.059 128.036C117.001 128.666 116.976 129.363 116.678 129.888C116.436 130.318 115.584 129.994 115.353 129.452C115.282 129.288 115.245 129.085 115.125 128.969C114.792 128.65 114.329 128.447 114.601 127.817C114.922 127.075 115.483 126.65 116.216 126.436C116.375 126.389 116.755 126.542 116.763 126.626C116.789 126.935 116.701 127.254 116.656 127.575ZM105.992 39.0932C105.845 38.7318 105.698 38.3713 105.519 37.9312C106.15 37.6814 106.778 37.3922 107.435 37.1964C107.618 37.1415 107.884 37.3629 108.112 37.4572C108.011 37.6924 107.911 37.9266 107.812 38.1572C109.05 38.2725 109.096 38.332 109.162 40.1263C108.661 39.9524 108.236 39.806 107.629 39.5956C107.081 40.0202 106.545 39.4382 105.963 39.0649C105.963 39.064 105.992 39.0932 105.992 39.0932Z" fill="#B7842C"/>
<path opacity="0.4" fill-rule="evenodd" clip-rule="evenodd" d="M113.299 39.6737C112.975 39.7725 112.716 39.8531 112.459 39.9318L112.459 40.5302C112.602 40.5595 112.817 40.6043 113.029 40.6473C112.594 42.0244 112.495 42.0537 111.063 41.2558C110.272 42.5387 110.155 42.5853 109.37 41.8716C109.637 41.5166 109.691 40.8331 110.436 41.2878C110.485 41.3171 110.702 41.2009 110.703 41.1497C110.706 41.0179 110.617 40.887 110.591 40.7507C110.535 40.4616 110.424 40.1541 110.483 39.886C110.503 39.7899 110.944 39.7845 111.303 39.7158C111.725 39.0488 112.421 38.9591 113.299 39.6737ZM54.3673 141.499C54.1642 141.23 53.962 140.959 53.7332 140.654C53.2062 140.862 52.6233 141.091 52.0395 141.322C51.9837 141.225 51.927 141.13 51.8702 141.034C52.2042 140.666 52.5382 140.298 52.917 139.879C52.6407 139.848 52.3826 139.849 52.1466 139.778C52.0359 139.745 51.8894 139.568 51.8986 139.468C51.9077 139.36 52.0624 139.218 52.1841 139.174C53.0662 138.858 53.9089 139.019 54.7718 139.336C55.3812 139.561 55.588 139.928 55.5678 140.528C55.5477 141.097 55.5632 141.667 55.5632 142.35C55.1277 142.177 54.9447 141.814 54.9822 141.268C55.0087 140.872 55.0399 140.47 54.9959 140.078C54.9813 139.95 54.7342 139.848 54.5942 139.733C54.5247 139.897 54.382 140.07 54.3993 140.223C54.4405 140.585 54.5586 140.938 54.6446 141.294C54.5522 141.362 54.4597 141.431 54.3673 141.499ZM114.003 34.8569C114.162 34.6803 114.321 34.5046 114.467 34.3427C114.282 34.0315 114.058 33.6573 113.786 33.1998C114.05 32.9445 114.33 32.6727 114.611 32.4019C114.821 32.7496 115.036 33.0936 115.237 33.4459C115.3 33.5585 115.309 33.703 115.371 33.8174C115.775 34.5659 116.29 35.2851 115.877 36.2889C115.252 36.2532 114.842 35.7637 114.423 35.2842C114.284 35.125 114.13 34.9795 113.983 34.8285C113.983 34.8294 114.003 34.8569 114.003 34.8569ZM81.0852 146.802C81.0065 146.27 81.5418 145.774 82.0103 146.063C82.7085 146.496 83.3499 146.498 84.0645 146.243C84.102 146.229 84.1825 146.332 84.2411 146.38C83.2913 148.24 83.2913 148.24 83.6061 148.797C83.241 148.734 82.8192 148.76 82.509 148.583C82.1823 148.399 81.9645 148.023 81.6269 147.652C81.6946 147.462 81.8108 147.134 81.938 146.776C81.5738 146.776 81.3158 146.776 81.0577 146.775C81.0568 146.775 81.0852 146.802 81.0852 146.802ZM111.887 83.0071C111.951 82.9439 112.016 82.8799 112.079 82.8167C112.434 82.9037 112.788 82.9897 112.988 83.0382C112.988 83.7418 112.992 84.2167 112.986 84.6916C112.984 84.8197 112.982 84.9625 112.931 85.0741C112.779 85.4044 112.943 86.0275 112.234 85.8702C111.53 85.7146 111.013 85.0595 111.209 84.4903C111.385 83.9788 111.657 83.5003 111.887 83.0071ZM86.7647 74.5414C85.3949 74.4929 84.8899 74.1589 84.6144 73.1222C84.555 72.899 84.6684 72.629 84.7023 72.3801C84.9155 72.4094 85.1314 72.4295 85.3419 72.4726C85.4416 72.4927 85.5697 72.619 85.6228 72.5888C86.5378 72.0571 86.708 73.038 87.1619 73.3839C87.2982 73.4891 87.2588 73.9311 87.1774 74.1791C87.1207 74.3557 86.8581 74.4655 86.7647 74.5414ZM62.4845 140.122L61.5503 140.122C62.2567 139.328 64.2331 138.9 64.9844 139.372C65.1793 139.494 65.1838 139.917 65.2753 140.203C65.2131 140.295 65.1509 140.389 65.0887 140.482C64.59 140.39 64.0913 140.23 63.5935 140.236C63.3565 140.239 63.0217 140.505 62.9082 140.737C62.6703 141.225 62.3692 141.562 61.8175 141.59C61.7013 141.596 61.5686 141.466 61.4652 141.373C61.4506 141.361 61.5677 141.133 61.6034 141.137C62.4241 141.258 62.1753 140.538 62.4845 140.122ZM115.827 40.9587C115.961 41.2552 116.059 41.4684 116.159 41.6889C116.386 41.6614 116.629 41.5791 116.845 41.623C117.017 41.6568 117.236 41.8197 117.289 41.9744C117.346 42.1427 117.301 42.4255 117.186 42.56C116.451 43.4219 115.142 43.4494 114.332 42.6158C114.234 42.5151 114.32 42.2361 114.321 42.0402C115.149 42.2415 115.324 41.4491 115.827 40.9587ZM65.7506 39.298C65.6371 38.6923 65.2355 38.1451 66.0242 37.5147C66.4716 37.1569 66.6995 36.4267 66.8486 35.821C66.9841 35.271 66.877 34.6607 66.877 34.0348C67.5578 34.2846 67.7444 35.0011 67.5916 35.5291C67.2101 36.8476 66.6281 38.1076 66.1258 39.3914C66.0004 39.3602 65.876 39.3291 65.7506 39.298ZM29.3464 148.779C29.2018 149.535 29.093 150.107 28.9713 150.743C28.1944 150.588 27.4761 150.377 27.0259 149.574C26.7359 149.058 26.9838 148.839 27.3819 148.799C28.0398 148.728 28.7114 148.779 29.3464 148.779ZM114.169 111.235C115.036 111.024 115.777 110.829 116.529 110.682C116.605 110.669 116.861 110.993 116.828 111.09C116.668 111.558 116.494 112.041 116.217 112.445C115.935 112.856 115.521 112.896 115.164 112.465C114.881 112.122 114.604 111.773 114.169 111.235ZM58.82 140.571C60.0351 140.652 59.2015 142.284 60.3664 142.31C59.6353 143.168 58.6516 143.247 58.0788 142.515C57.9782 142.386 58.1172 141.973 58.2627 141.776C58.3799 141.619 58.6708 141.588 58.9316 141.482C58.8978 141.206 58.8639 140.93 58.82 140.571ZM64.8767 39.1412C64.9975 39.5118 65.0688 39.7305 65.1585 40.004C65.336 39.9711 65.5154 39.9382 65.6691 39.9098C66.0882 40.3325 65.6105 41.8048 64.8977 42.3575C64.6754 41.329 64.2837 40.3335 64.8767 39.1412ZM114.179 91.1431C114.796 91.3745 114.943 91.8238 114.573 92.4762C114.751 92.5833 114.922 92.6867 115.241 92.8807C114.922 93.071 114.656 93.3519 114.493 93.3016C114.103 93.1845 113.747 92.9301 113.409 92.6867C113.33 92.63 113.315 92.3564 113.38 92.2521C113.609 91.8824 113.886 91.542 114.179 91.1431ZM60.223 118.99C59.8021 119.234 59.404 119.568 58.9502 119.682C58.7223 119.74 58.3948 119.397 58.1111 119.236C58.3115 119.016 58.4881 118.648 58.7169 118.612C59.1835 118.537 59.6795 118.641 60.1635 118.671C60.1836 118.778 60.2038 118.884 60.223 118.99ZM115.829 38.9808C115.547 38.7539 115.293 38.5782 115.073 38.3668C114.699 38.0054 114.799 37.4802 115.274 37.2843C115.505 37.1892 115.748 37.0904 115.992 37.0721C116.109 37.0629 116.361 37.266 116.347 37.32C116.205 37.859 116.021 38.3879 115.829 38.9808ZM115.837 43.8623C115.22 44.1872 114.805 44.8569 114.165 44.297C113.985 44.1405 113.982 43.4066 114.098 43.3517C114.705 43.0608 115.25 43.3206 115.837 43.8623ZM116.717 94.5905C116.236 94.9089 115.868 95.2173 115.445 95.392C115.309 95.4478 114.959 95.2008 114.833 95.0086C114.727 94.8458 114.725 94.5164 114.826 94.348C114.917 94.1934 115.231 94.0497 115.404 94.09C115.823 94.186 116.218 94.391 116.717 94.5905ZM52.8027 156.918C52.412 156.58 51.928 156.303 51.6544 155.889C51.3131 155.372 51.4384 154.799 51.8502 154.372C52.1915 155.186 52.5218 155.976 52.8531 156.766C52.8357 156.817 52.8201 156.867 52.8027 156.918ZM67.1213 139.406C67.5788 138.707 68.0546 138.617 68.5597 138.83C68.858 138.957 69.0987 139.222 69.3658 139.425C69.3146 139.525 69.2643 139.624 69.213 139.724C68.5606 139.624 67.9073 139.526 67.1213 139.406ZM95.3305 5.97662C95.7477 6.02512 96.143 5.96015 96.2409 6.10198C96.5685 6.57047 96.7881 7.11399 97.0956 7.71882C96.1101 7.55869 95.7962 6.86328 95.3305 5.97662ZM116.889 130.573C116.925 131.073 116.985 131.575 116.979 132.075C116.977 132.197 116.728 132.433 116.639 132.414C116.473 132.376 116.209 132.181 116.217 132.065C116.251 131.557 116.366 131.054 116.452 130.551C116.599 130.557 116.744 130.566 116.889 130.573ZM116.836 37.9822C116.908 38.5358 116.985 38.9036 116.993 39.2724C116.995 39.4225 116.866 39.6878 116.768 39.7025C116.583 39.7308 116.316 39.6714 116.194 39.5423C116.083 39.4243 116.038 39.1269 116.109 38.9787C116.251 38.684 116.494 38.437 116.836 37.9822ZM60.499 141.87C60.306 141.599 60.1138 141.33 59.9207 141.059C60.1294 140.977 60.349 140.917 60.543 140.811C60.8056 140.667 61.049 140.489 61.3006 140.326C61.3656 140.403 61.4324 140.479 61.4982 140.554L60.4716 141.897L60.499 141.87ZM113.154 129.989C113.424 130.178 113.911 130.359 113.917 130.555C113.928 130.924 113.662 131.301 113.511 131.675C113.402 131.65 113.295 131.626 113.187 131.603C113.115 131.111 113.043 130.619 112.972 130.128L113.154 129.989ZM100.267 46.3067C99.9289 45.8629 99.6864 45.5921 99.5172 45.2819C99.4824 45.2197 99.723 45.0055 99.8374 44.8619C100.106 45.1172 100.396 45.356 100.625 45.6433C100.667 45.6964 100.47 45.9425 100.267 46.3067ZM50.2497 143.303C49.8188 142.494 49.5031 141.899 49.138 141.214C50.0832 141.427 50.3778 141.968 50.2497 143.303ZM89.2229 14.8909C89.6942 14.8259 90.1645 14.7262 90.6366 14.7198C90.7547 14.718 90.8782 15.0135 90.999 15.1727C90.8178 15.2405 90.6293 15.3823 90.4591 15.3631C90.0501 15.3155 89.6512 15.192 89.2467 15.0995C89.2394 15.03 89.2312 14.9605 89.2229 14.8909ZM54.4916 143.569C55.0662 143.659 55.8495 143.05 56.177 143.977C55.4505 144.453 54.9774 143.966 54.4916 143.569ZM114.607 95.9398L115.991 95.9398C115.836 96.2005 115.718 96.3991 115.6 96.5986L115.588 96.6379C114.993 96.7614 114.447 96.8191 114.632 95.9132L114.607 95.9398ZM104.098 3.11719C104.072 2.94791 103.963 2.70909 104.034 2.624C104.258 2.35773 104.551 2.15002 104.818 1.91943C104.919 2.05943 105.136 2.28087 105.104 2.32662C104.878 2.64687 104.6 2.93053 104.339 3.22608C104.259 3.18948 104.179 3.15379 104.098 3.11719ZM113.555 43.0201C114.021 43.7732 113.652 44.0843 113.209 44.4357C112.806 43.8226 113.137 43.4776 113.555 43.0201ZM50.1247 139.025L50.1247 137.411C50.2198 137.412 50.3159 137.413 50.4101 137.415C50.3552 137.952 50.7597 138.497 50.3754 139.029C50.2921 139.027 50.2088 139.026 50.1247 139.025Z" fill="#B7842C"/>
<path opacity="0.4" fill-rule="evenodd" clip-rule="evenodd" d="M60.4714 141.897C60.7962 141.839 61.121 141.753 61.4477 141.735C61.5822 141.728 61.724 141.871 61.8622 141.944C61.757 142.076 61.6115 142.339 61.5557 142.322C61.1924 142.205 60.8493 142.027 60.4997 141.87C60.4988 141.871 60.4714 141.897 60.4714 141.897ZM52.8939 145.189C52.9369 144.715 52.9808 144.243 53.0239 143.769L53.1812 143.694C53.281 143.909 53.4795 144.136 53.4548 144.334C53.4155 144.656 53.2297 144.961 53.1062 145.273C53.0348 145.245 52.9644 145.216 52.8939 145.189ZM115.588 96.6377L115.601 96.5983C115.969 96.6322 116.338 96.6661 116.708 96.699C116.716 96.8079 116.725 96.9149 116.734 97.0229C116.496 97.1108 116.215 97.3194 116.033 97.2544C115.836 97.1821 115.732 96.8536 115.588 96.6377ZM114.633 95.913C114.167 95.8929 113.805 95.7282 113.831 95.1947C113.837 95.0895 114.08 94.9952 114.214 94.8964C114.345 95.2441 114.475 95.5909 114.607 95.9395L114.633 95.913ZM41.9325 162.899C42.3341 162.527 42.7377 162.155 43.1403 161.782C43.2299 161.874 43.3205 161.965 43.4102 162.057C43.0039 162.426 42.5986 162.795 42.1923 163.165C42.1054 163.075 42.0194 162.987 41.9325 162.899ZM76.394 81.0458C76.921 81.0714 77.4472 81.0988 77.9742 81.1245C77.9641 81.1858 77.955 81.248 77.9458 81.3093C78.149 81.2343 78.3494 81.1171 78.5562 81.1034C78.6467 81.0979 78.784 81.2901 78.8334 81.4173C78.8535 81.4685 78.7007 81.6579 78.6147 81.6671C78.0401 81.7247 77.4618 81.7897 76.8881 81.7677C76.6758 81.7604 76.4717 81.5252 76.2631 81.3944C76.307 81.2782 76.351 81.162 76.394 81.0458Z" fill="#B7842C"/>
</g>
<g style="mix-blend-mode:soft-light" opacity="0.68" filter="url(#filter2_f_3_6596)">
<path fill-rule="evenodd" clip-rule="evenodd" d="M90.7153 243.395L42.3335 243.395C43.0164 234.182 50.5165 226.925 59.6682 226.925C64.2731 226.925 68.4599 228.762 71.5704 231.762C73.2498 231.005 75.1042 230.585 77.0535 230.585C84.1857 230.585 90.0473 236.206 90.7153 243.395Z" fill="#B7842C"/>
</g>
<path fill-rule="evenodd" clip-rule="evenodd" d="M20.9836 17.4965C20.965 17.0641 20.8447 16.6351 20.6222 16.2473L18.6597 12.8269C18.5101 12.5661 18.4067 12.2865 18.3494 12L18.2673 12.1429C17.7816 12.9895 17.7816 14.0325 18.2672 14.8791L19.8373 17.6154C20.3229 18.462 20.3229 19.5051 19.8373 20.3516L19.7552 20.4946C19.6978 20.2079 19.5944 19.9284 19.4448 19.6677L18.0075 17.1626L17.0898 15.5631C16.9401 15.3024 16.8368 15.0228 16.7793 14.7362L16.6973 14.8792C16.2133 15.7229 16.2118 16.7617 16.6926 17.6068L16.6924 17.6068L18.2673 20.3516C18.7531 21.1983 18.7531 22.2413 18.2673 23.0879L18.1853 23.2309C18.1278 22.9443 18.0244 22.6648 17.8748 22.4039L15.9124 18.9836C15.6492 18.5248 15.5289 18.0084 15.5509 17.4968C13.45 18.0491 12 19.2218 12 20.5796C12 22.4687 14.8059 24 18.2673 24C21.7286 24 24.5345 22.4687 24.5345 20.5796C24.5345 19.2218 23.0847 18.0488 20.9836 17.4965Z" fill="white"/>
<path d="M122.912 220.662L119.662 228.35H117.6L116.037 222.225C115.912 221.85 115.85 221.725 115.537 221.537C115.037 221.287 114.287 221.037 113.6 220.912L113.662 220.662H117.037C117.475 220.662 117.85 220.975 117.975 221.475L118.787 225.912L120.85 220.662H122.912ZM131.162 225.85C131.162 223.787 128.35 223.725 128.35 222.787C128.35 222.537 128.6 222.225 129.225 222.162C129.537 222.1 130.287 222.1 131.162 222.537L131.537 220.912C131.037 220.725 130.412 220.6 129.662 220.6C127.662 220.6 126.287 221.662 126.287 223.162C126.287 224.287 127.287 224.912 128.037 225.287C128.787 225.662 129.1 225.912 129.1 226.225C129.1 226.725 128.475 226.975 127.912 226.975C126.912 226.975 126.35 226.725 125.85 226.475L125.475 228.162C125.912 228.35 126.787 228.537 127.662 228.6C129.787 228.537 131.162 227.475 131.162 225.85ZM136.412 228.412H138.225L136.6 220.725H134.912C134.537 220.725 134.225 220.975 134.037 221.287L131.037 228.412H133.1L133.537 227.287H136.1L136.412 228.412ZM134.162 225.662L135.225 222.787L135.85 225.662H134.162ZM125.787 220.662L124.162 228.35H122.162L123.787 220.662H125.787Z" fill="white"/>
</g>
<defs>
<filter id="filter0_f_3_6596" x="45.028" y="40.2609" width="49.4109" height="46.6659" filterUnits="userSpaceOnUse" color-interpolation-filters="sRGB">
<feFlood flood-opacity="0" result="BackgroundImageFix"/>
<feBlend mode="normal" in="SourceGraphic" in2="BackgroundImageFix" result="shape"/>
<feGaussianBlur stdDeviation="2.74505" result="effect1_foregroundBlur_3_6596"/>
</filter>
<filter id="filter1_f_3_6596" x="49.6032" y="96.9918" width="64.9661" height="61.3063" filterUnits="userSpaceOnUse" color-interpolation-filters="sRGB">
<feFlood flood-opacity="0" result="BackgroundImageFix"/>
<feBlend mode="normal" in="SourceGraphic" in2="BackgroundImageFix" result="shape"/>
<feGaussianBlur stdDeviation="2.74505" result="effect1_foregroundBlur_3_6596"/>
</filter>
<filter id="filter2_f_3_6596" x="36.8434" y="221.434" width="59.3621" height="27.4506" filterUnits="userSpaceOnUse" color-interpolation-filters="sRGB">
<feFlood flood-opacity="0" result="BackgroundImageFix"/>
<feBlend mode="normal" in="SourceGraphic" in2="BackgroundImageFix" result="shape"/>
<feGaussianBlur stdDeviation="2.74505" result="effect1_foregroundBlur_3_6596"/>
</filter>
<linearGradient id="paint0_linear_3_6596" x1="106.799" y1="243.395" x2="61.7172" y2="7.41736" gradientUnits="userSpaceOnUse">
<stop stop-color="#8C5F1E"/>
<stop offset="0.39234" stop-color="#946420"/>
<stop offset="0.5336" stop-color="#8F601E"/>
<stop offset="0.6454" stop-color="#82571A"/>
<stop offset="1" stop-color="#764D16"/>
</linearGradient>
<linearGradient id="paint1_linear_3_6596" x1="153" y1="210.683" x2="-0.999925" y2="210.683" gradientUnits="userSpaceOnUse">
<stop stop-color="#81561A"/>
<stop offset="1" stop-color="#754C17"/>
</linearGradient>
<linearGradient id="paint2_linear_3_6596" x1="125.759" y1="88.1255" x2="51.1188" y2="128.572" gradientUnits="userSpaceOnUse">
<stop stop-color="#624013" stop-opacity="0"/>
<stop offset="0.52067" stop-color="#6F4814" stop-opacity="0.496"/>
<stop offset="1" stop-color="#684414"/>
</linearGradient>
<clipPath id="clip0_3_6596">
<rect width="151" height="241" rx="10" fill="white"/>
</clipPath>
</defs>
</svg>
